<svg id="Layer_1" data-name="Layer 1" xmlns="http://www.w3.org/2000/svg" xmlns:xlink="http://www.w3.org/1999/xlink" viewBox="0 0 233.76 217.9"><defs><style>.cls-1,.cls-2{fill:none;}.cls-2{clip-path:url(#clip-path);clip-rule:evenodd;}.cls-3{clip-path:url(#clip-path-4);}.cls-4{fill:#ea8f23;}.cls-5{clip-path:url(#clip-path-5);}.cls-6{fill:#e23334;}.cls-7{clip-path:url(#clip-path-6);}.cls-8{fill:#fff;}</style><clipPath id="clip-path"><rect id="SVGID" class="cls-1" x="4.93" y="2.32" width="221.9" height="221.9"/></clipPath><clipPath id="clip-path-4"><path id="SVGID-4" data-name="SVGID" class="cls-2" d="M43.07,40.46l76.28-24.27,76.28,24.27v83.23c0,17.22-11.55,39.06-25.77,48.76l-50.51,34.43L68.84,172.45c-14.23-9.71-25.77-31.54-25.77-48.76V40.46Z"/></clipPath><clipPath id="clip-path-5"><path id="SVGID-5" data-name="SVGID" class="cls-2" d="M60.41,56l58.94-19,58.94,19V114.2c0,17.24-11.5,39.16-25.68,48.94l-33.26,22.94L86.09,163.14c-14.18-9.79-25.68-31.69-25.68-48.94V56Z"/></clipPath><clipPath id="clip-path-6"><polygon id="SVGID-6" data-name="SVGID" class="cls-2" points="67.34 64.73 52.63 69.04 56.94 54.32 52.63 39.62 67.34 43.92 82.05 39.62 77.74 54.32 82.05 69.04 67.34 64.73 67.34 64.73"/></clipPath></defs><title>defend1</title><g class="cls-3"><rect class="cls-4" x="25.73" y="-1.15" width="187.23" height="225.37"/></g><g class="cls-5"><rect class="cls-6" x="43.07" y="19.65" width="152.56" height="183.77"/></g><g class="cls-7"><rect class="cls-8" x="35.29" y="22.28" width="64.09" height="64.09"/></g></svg>