<svg id="Layer_1" data-name="Layer 1" xmlns="http://www.w3.org/2000/svg" xmlns:xlink="http://www.w3.org/1999/xlink" viewBox="0 0 233.76 217.9"><defs><style>.cls-1,.cls-2{fill:none;}.cls-14,.cls-2{clip-path:url(#clip-path);}.cls-2{clip-rule:evenodd;}.cls-3{clip-path:url(#clip-path-9);}.cls-4{fill:#5492ce;}.cls-5{clip-path:url(#clip-path-10);}.cls-6{fill:#ffdd94;}.cls-7{clip-path:url(#clip-path-11);}.cls-8{clip-path:url(#clip-path-12);}.cls-9{clip-path:url(#clip-path-13);}.cls-10{fill:#ef4240;}.cls-11{clip-path:url(#clip-path-14);}.cls-12{clip-path:url(#clip-path-15);}.cls-13{clip-path:url(#clip-path-16);}.cls-15{fill:#86c65d;}</style><clipPath id="clip-path"><rect id="SVGID" class="cls-1" x="25.02" y="10.79" width="192.19" height="192.19"/></clipPath><clipPath id="clip-path-9"><path id="SVGID-9" data-name="SVGID" class="cls-2" d="M28,115.9a13.8,13.8,0,0,1,11.9-13.38L79.07,98l39.15,4.51a13.78,13.78,0,0,1,11.9,13.38v21H28v-21Z"/></clipPath><clipPath id="clip-path-10"><path id="SVGID-10" data-name="SVGID" class="cls-2" d="M61.06,83.82c-9.05-8.55-15-22.39-15-34a33,33,0,0,1,66.06,0c0,11.6-6,25.44-15,34v20.07s-12.22,4.35-18,4.35-18-4.35-18-4.35V83.82Z"/></clipPath><clipPath id="clip-path-11"><path id="SVGID-11" data-name="SVGID" class="cls-2" d="M52,73.86a9,9,0,1,0-9-9,9,9,0,0,0,9,9Z"/></clipPath><clipPath id="clip-path-12"><path id="SVGID-12" data-name="SVGID" class="cls-2" d="M106.1,73.86a9,9,0,1,0-9-9,9,9,0,0,0,9,9Z"/></clipPath><clipPath id="clip-path-13"><path id="SVGID-13" data-name="SVGID" class="cls-2" d="M112.1,157.94A13.81,13.81,0,0,1,124,144.56l39.15-4.51,39.14,4.51a13.78,13.78,0,0,1,11.91,13.38v21H112.1v-21Z"/></clipPath><clipPath id="clip-path-14"><path id="SVGID-14" data-name="SVGID" class="cls-2" d="M145.14,125.86c-9-8.55-15-22.39-15-34a33,33,0,1,1,66.07,0c0,11.59-6,25.43-15,34v20.07s-12.21,4.35-18,4.35-18-4.35-18-4.35V125.86Z"/></clipPath><clipPath id="clip-path-15"><path id="SVGID-15" data-name="SVGID" class="cls-2" d="M136.13,115.9a9,9,0,1,0-9-9,9,9,0,0,0,9,9Z"/></clipPath><clipPath id="clip-path-16"><path id="SVGID-16" data-name="SVGID" class="cls-2" d="M190.18,115.9a9,9,0,1,0-9-9,9,9,0,0,0,9,9Z"/></clipPath></defs><title>player</title><g class="cls-3"><rect class="cls-4" x="13.01" y="82.99" width="132.13" height="68.95"/></g><g class="cls-5"><rect class="cls-6" x="31.02" y="1.78" width="96.09" height="121.47"/></g><g class="cls-7"><rect class="cls-6" x="28.02" y="40.82" width="48.05" height="48.05"/></g><g class="cls-8"><rect class="cls-6" x="82.07" y="40.82" width="48.05" height="48.05"/></g><g class="cls-9"><rect class="cls-10" x="97.09" y="125.04" width="132.13" height="68.94"/></g><g class="cls-11"><rect class="cls-6" x="115.11" y="43.83" width="96.09" height="121.47"/></g><g class="cls-12"><rect class="cls-6" x="112.1" y="82.86" width="48.05" height="48.05"/></g><g class="cls-13"><rect class="cls-6" x="166.16" y="82.86" width="48.05" height="48.05"/></g><g class="cls-14"><path class="cls-15" d="M152.22,194.34h-12a3,3,0,1,1,0-6h12a3,3,0,1,1,0,6Zm-24,0h-12a3,3,0,1,1,0-6h12a3,3,0,1,1,0,6Zm-24,0h-12a3,3,0,1,1,0-6h12a3,3,0,1,1,0,6Zm-24,0H76.3V180.17a3,3,0,0,1,6,0v9.08a3,3,0,0,1,.84,2.08A3,3,0,0,1,80.14,194.34Zm83.33-.76a3,3,0,0,1-3-3v-12a3,3,0,0,1,6,0v12A3,3,0,0,1,163.47,193.58ZM79.3,171.16a3,3,0,0,1-3-3v-12a3,3,0,0,1,6,0v12A3,3,0,0,1,79.3,171.16Zm0-24a3,3,0,0,1-3-3v-7.06a3,3,0,0,1,6,0v7.06A3,3,0,0,1,79.3,147.14Z"/></g></svg>