<svg id="Layer_1" data-name="Layer 1" xmlns="http://www.w3.org/2000/svg" xmlns:xlink="http://www.w3.org/1999/xlink" viewBox="0 0 233.76 217.9"><defs><style>.cls-1,.cls-2{fill:none;}.cls-2,.cls-9{clip-path:url(#clip-path);}.cls-2{clip-rule:evenodd;}.cls-3{clip-path:url(#clip-path-4);}.cls-4{fill:#d7d7d7;}.cls-5{clip-path:url(#clip-path-5);}.cls-6{fill:#ebebeb;}.cls-7{clip-path:url(#clip-path-6);}.cls-8{fill:#fbac43;}.cls-10{fill:#959595;}.cls-11{clip-path:url(#clip-path-8);}</style><clipPath id="clip-path"><rect id="SVGID" class="cls-1" x="16.48" y="4.54" width="200.81" height="200.81"/></clipPath><clipPath id="clip-path-4"><path id="SVGID-4" data-name="SVGID" class="cls-2" d="M21.65,72.15a9.39,9.39,0,0,1,6.66-11.52l145.47-39a9.41,9.41,0,0,1,11.53,6.64l26.8,100.05a9.39,9.39,0,0,1-6.66,11.51L60,178.83a9.4,9.4,0,0,1-11.52-6.64l-26.81-100Z"/></clipPath><clipPath id="clip-path-5"><path id="SVGID-5" data-name="SVGID" class="cls-2" d="M44.72,76.73a9.41,9.41,0,0,1,9.41-9.44H204.74a9.41,9.41,0,0,1,9.41,9.44V192.78a9.41,9.41,0,0,1-9.41,9.44H54.13a9.4,9.4,0,0,1-9.41-9.44v-116Z"/></clipPath><clipPath id="clip-path-6"><rect id="SVGID-6" data-name="SVGID" class="cls-1" x="60.4" y="130.05" width="53.34" height="31.38"/></clipPath><clipPath id="clip-path-8"><path id="SVGID-8" data-name="SVGID" class="cls-2" d="M79.56,83.52a4.22,4.22,0,0,1,.62,2.41q0,3.54-3.88,10.93-4,7.8-6.61,7.79a1.05,1.05,0,0,1-1-.73,21.26,21.26,0,0,0-.12,2.36c0,1.64.1,3.51.29,5.63a3.45,3.45,0,0,0,.21.94,3.8,3.8,0,0,1,.2,1c0,.52-.36,1-1.07,1.31a3,3,0,0,1-1.3.24,5.43,5.43,0,0,1-2.53-.61,2.52,2.52,0,0,1-1.55-1.72,3,3,0,0,1,0-.48,1.7,1.7,0,0,1,.43-1.13c.29-.34.43-.56.43-.67l-.74-26.43a2,2,0,0,0-.12-.49,2,2,0,0,1-.12-.57c0-.49.35-.87,1.06-1.14a4.49,4.49,0,0,1,1.71-.33c.19,0,1,.09,2.29.24a17.11,17.11,0,0,0,2.43-.87A10.59,10.59,0,0,1,74,80.3a6.65,6.65,0,0,1,5.54,3.22Zm-6.07,1.64a4.89,4.89,0,0,0-2.51,1,13.65,13.65,0,0,0-2.67,2.39L68.47,98c1.2-.9,2.5-2.71,3.89-5.41s2.1-4.77,2.1-6.18c0-.82-.32-1.22-1-1.22Zm27.86,12.07a28.06,28.06,0,0,1-1.88,11.28c-1.44,3.87-3,6.06-4.61,6.55a4.9,4.9,0,0,1-1.91.24L91,115.06q-8.41-1-9.26-17.83a26.7,26.7,0,0,1,1.47-9.79c1.06-3.24,2.16-5.23,3.3-6a1.47,1.47,0,0,1,.9-.29,4.29,4.29,0,0,1,1.14.23,5,5,0,0,0,1.18.21,13.22,13.22,0,0,0,1.78-.21,11.09,11.09,0,0,1,1.89-.23,2.48,2.48,0,0,1,.94.16q6.33,2.58,7,15.91Zm-5.51,0a45.82,45.82,0,0,0-1.1-7.67c-.76-2.88-1.89-4.33-3.39-4.33a2.93,2.93,0,0,0-1.28.33c-.45.22-1,1.62-1.78,4.2a29.73,29.73,0,0,0-1.14,7.47,29.14,29.14,0,0,0,1.47,8.83c1,3.08,1.92,4.63,2.81,4.63s1.79-1.39,2.82-4.16a23.16,23.16,0,0,0,1.63-8.2c0-.38,0-.75,0-1.1Zm23.82,10.85a2.44,2.44,0,0,1,.25,1.1,3.45,3.45,0,0,1-.63,2,3.05,3.05,0,0,1-1.47,1.24,7.12,7.12,0,0,1-2.39.31,9,9,0,0,0-2.24.2,3.83,3.83,0,0,0-1.6,1.27,4.41,4.41,0,0,1-2.69,1.14,3.13,3.13,0,0,1-2.41-.82,4.94,4.94,0,0,1-1.67-2.4,2.13,2.13,0,0,1-.08-.53,1.9,1.9,0,0,1,.59-1.19,1.64,1.64,0,0,0,.56-1.14L104.16,84.5a2.07,2.07,0,0,0-.43-.75,1.91,1.91,0,0,1-.43-1,1.48,1.48,0,0,1,.62-1.1,3.51,3.51,0,0,1,2.44-.78,6.08,6.08,0,0,1,2.6.58,2.81,2.81,0,0,1,1.56,1.34,1.9,1.9,0,0,1,.21.78,1,1,0,0,1-.37.73A.85.85,0,0,0,110,85l1.47,22.52,2.44-1c.52-.25,1-.48,1.57-.71a3.55,3.55,0,0,1,1.33-.35c1,0,1.92.87,2.81,2.61Zm8.65,6c-.25.68-1,1-2.12,1a6.79,6.79,0,0,1-1.06-.09c-2.23-.35-3.54-1-3.92-2a1.42,1.42,0,0,1-.12-.57,2.37,2.37,0,0,1,.94-1.71q-.16-6.12-.74-25a2.53,2.53,0,0,0-.28-1.25,2.86,2.86,0,0,1-.33-1,2.17,2.17,0,0,1,.94-1.54,2.65,2.65,0,0,1,1.83-.58,6.74,6.74,0,0,1,2.86.7c1.2.57,1.79,1.26,1.79,2.07a11.08,11.08,0,0,1-.85,2.21l.41,24.71a3,3,0,0,0,.37,1.25,3,3,0,0,1,.36,1.2,2,2,0,0,1-.08.58Zm20.15-27.82a2,2,0,0,1-1.92.85,9.76,9.76,0,0,0-2.24.13l-3.51,1.47q-.12,3.09-.12,6.81c0,5,.15,10.18.45,15.45a3.65,3.65,0,0,0,.43,1.49,3.84,3.84,0,0,1,.42,1.33,1.54,1.54,0,0,1-.36,1,3.15,3.15,0,0,1-2.7,1.22,5.82,5.82,0,0,1-3-.83,3,3,0,0,1-1.6-2,1.62,1.62,0,0,1,.63-1.39,2.2,2.2,0,0,0,.75-1.47q-.28-8.11-.29-14.2c0-2.44.05-4.4.13-5.87,0,0-.41.14-1.15.41a3.45,3.45,0,0,1-1.17.29,1.8,1.8,0,0,1-1.19-.45A20.77,20.77,0,0,1,130.43,89a2.27,2.27,0,0,1-.65-1.55,2.67,2.67,0,0,1,.08-.65q.12-.57,5.95-2.33a66.65,66.65,0,0,0,6.77-2.24,2.82,2.82,0,0,0,1-.74,2.05,2.05,0,0,1,1.2-.65A3.71,3.71,0,0,1,147.16,82a4,4,0,0,1,1.62,3,2.68,2.68,0,0,1-.32,1.23ZM158.9,114c-.24.68-1,1-2.12,1a6.79,6.79,0,0,1-1.06-.09c-2.23-.35-3.54-1-3.92-2a1.42,1.42,0,0,1-.12-.57,2.37,2.37,0,0,1,.94-1.71q-.17-6.12-.73-25a2.67,2.67,0,0,0-.29-1.25,2.86,2.86,0,0,1-.33-1,2.21,2.21,0,0,1,.94-1.54,2.66,2.66,0,0,1,1.84-.58,6.7,6.7,0,0,1,2.85.7q1.8.86,1.8,2.07a11.49,11.49,0,0,1-.86,2.21l.41,24.71a3.1,3.1,0,0,0,.36,1.25,2.88,2.88,0,0,1,.37,1.2,2.38,2.38,0,0,1-.08.58Zm19.29-8.28q-3.87,9.66-7.74,9.7-4.69,0-6.86-4.85a24.6,24.6,0,0,1-1.71-9.83,39.16,39.16,0,0,1,1.8-12.49q2.1-6.56,5.75-7c.35,0,.69,0,1,0a5.79,5.79,0,0,1,5.22,3A23.75,23.75,0,0,1,178,91.56a11.81,11.81,0,0,1,.69,2.45c0,.9-.56,1.59-1.67,2.07a2.08,2.08,0,0,1-.85.17,5.58,5.58,0,0,1-2.61-.77c-1.12-.6-1.68-1.25-1.68-2a10.7,10.7,0,0,1,.57-1.59,11.59,11.59,0,0,0-.65-3.41c-.38-1.08-.82-1.66-1.3-1.77-.77-.19-1.43,1.31-2,4.53a60.07,60.07,0,0,0-.9,8.81,32.12,32.12,0,0,0,.41,6.72c.4,2.37,1,3.63,1.83,3.8.49.08,1.07-.53,1.75-1.84a18.94,18.94,0,0,0,1.64-4.24,3.58,3.58,0,0,1-.09-.77c0-1.61,1-2.41,2.94-2.41a7.26,7.26,0,0,1,1.31.12c1.33.27,2,.94,2,2a2.93,2.93,0,0,1-1.14,2.29Zm21.87,1.83a8.39,8.39,0,0,1-2,5.57,6.29,6.29,0,0,1-5,2.38q-6,0-8.81-5.7-3.06-2-3.06-3.39a1.31,1.31,0,0,1,.86-1.14,6.52,6.52,0,0,1,3.06-.9c2,0,3.36,1.19,4,3.59.32.65.66,1.3,1,2a1.58,1.58,0,0,0,1.42,1c1.61,0,2.41-1.14,2.41-3.42,0-2-.37-3.41-1.1-4.12a21.89,21.89,0,0,0-3.92-1.88,9.21,9.21,0,0,1-4.4-3.91A10.38,10.38,0,0,1,183,92.33a13.7,13.7,0,0,1,2.2-7.83c1.58-2.45,3.53-3.67,5.87-3.67a6.38,6.38,0,0,1,6,3.26,11,11,0,0,1,1.39,5.06,10.18,10.18,0,0,1,.44,2.82,4,4,0,0,1-.2,1.35,2.36,2.36,0,0,1-2.41,1.5,3.64,3.64,0,0,1-2.45-1,4.69,4.69,0,0,1-1.5-3,1.79,1.79,0,0,1,.26-1.31,3.77,3.77,0,0,0,.39-.73.23.23,0,0,0-.08-.16,3,3,0,0,0,0-.41c0-.82-.48-1.2-1.43-1.15A2.6,2.6,0,0,0,189.33,89a7.53,7.53,0,0,0-.61,3.47q.12,3.47,4.57,5.55a14.55,14.55,0,0,1,4.85,3.21,9.71,9.71,0,0,1,1.92,6.41Z"/></clipPath></defs><title>politics</title><g class="cls-3"><rect class="cls-4" x="16.48" y="23.37" width="200.81" height="153.75" transform="translate(-21.96 33.67) rotate(-15)"/></g><g class="cls-5"><rect class="cls-6" x="29.03" y="51.61" width="200.81" height="166.3"/></g><g class="cls-7"><rect class="cls-8" x="44.72" y="114.36" width="84.72" height="62.75"/></g><g class="cls-9"><path class="cls-10" d="M201.66,161.42h-78.5v-6.27h78.5Zm0-12.55h-78.5V142.6h78.5Zm0-12.55h-78.5v-6.27h78.5Z"/></g><g class="cls-11"><rect class="cls-10" x="46.99" y="64.61" width="168.75" height="67.03"/></g><g class="cls-9"><path class="cls-10" d="M201.74,186.53H60.4v-6.28H201.74Zm0-12.56H60.4V167.7H201.74Z"/></g></svg>