<svg id="Layer_1" data-name="Layer 1" xmlns="http://www.w3.org/2000/svg" xmlns:xlink="http://www.w3.org/1999/xlink" viewBox="0 0 233.76 217.9"><defs><style>.cls-1,.cls-2{fill:none;}.cls-2{clip-path:url(#clip-path);clip-rule:evenodd;}.cls-3{clip-path:url(#clip-path-5);}.cls-4{fill:#bb7474;}.cls-5{clip-path:url(#clip-path-6);}.cls-6{fill:#b4ddf6;}.cls-7{fill:#6f9ed4;}.cls-8{clip-path:url(#clip-path-7);}.cls-9{fill:#9d4e4e;}.cls-10{clip-path:url(#clip-path-8);}</style><clipPath id="clip-path"><rect id="SVGID" class="cls-1" x="8.33" y="1.4" width="215.1" height="215.1"/></clipPath><clipPath id="clip-path-5"><polygon id="SVGID-5" data-name="SVGID" class="cls-2" points="77.85 134.1 94.08 150.34 65.56 178.85 49.34 162.63 77.85 134.1 77.85 134.1"/></clipPath><clipPath id="clip-path-6"><polygon id="SVGID-6" data-name="SVGID" class="cls-2" points="166.37 28.55 202.01 26.18 199.64 61.83 109.73 142.22 85.97 118.46 166.37 28.55 166.37 28.55"/></clipPath><clipPath id="clip-path-7"><path id="SVGID-7" data-name="SVGID" class="cls-2" d="M43.19,185c7.87,7.88,18.51,10,23.77,4.75s3.12-15.89-4.75-23.77-18.52-10-23.78-4.74S35.31,177.13,43.19,185Z"/></clipPath><clipPath id="clip-path-8"><polygon id="SVGID-8" data-name="SVGID" class="cls-2" points="74.09 106.58 121.61 154.1 109.73 165.99 62.2 118.46 74.09 106.58 74.09 106.58"/></clipPath></defs><title>steal</title><g class="cls-3"><polygon class="cls-4" points="77.85 110.34 117.85 150.34 65.56 202.62 25.57 162.63 77.85 110.34"/></g><g class="cls-5"><polygon class="cls-6" points="185.37 -14.23 242.42 42.81 114.49 170.74 57.45 113.7 185.37 -14.23"/></g><path class="cls-7" d="M97.63,133.53a1.72,1.72,0,0,1-1.19-.49,1.68,1.68,0,0,1,0-2.38l94.05-94A1.68,1.68,0,0,1,192.87,39L98.82,133A1.72,1.72,0,0,1,97.63,133.53Z"/><g class="cls-8"><rect class="cls-9" x="22.45" y="138.52" width="60.5" height="73.95" transform="translate(-108.66 88.66) rotate(-45)"/></g><g class="cls-10"><rect class="cls-9" x="66.7" y="85.87" width="50.42" height="100.83" transform="translate(-69.44 104.91) rotate(-45)"/></g></svg>