<svg xmlns="http://www.w3.org/2000/svg" viewBox="0 0 237.48 428.16"><defs><style>.cls-1{isolation:isolate;}.cls-2{fill:#fff;}.cls-3{fill:#c6c5c5;}.cls-4{fill:#898989;}.cls-5{fill:#dcdcdc;}.cls-6{fill:#bcb9ad;}.cls-7{fill:#c9c7b9;}.cls-8{opacity:0.5;mix-blend-mode:multiply;}.cls-9{fill:#adada1;}.cls-10{fill:#575654;}.cls-11{fill:#dcdbdb;}.cls-12{fill:#888;}.cls-13{fill:#4b95d1;}.cls-14{fill:#058;}.cls-15{fill:#2d86c7;}.cls-16{fill:#e2e2e2;}.cls-17{fill:#416364;}.cls-18{fill:#311137;}.cls-19{fill:#399ad5;}.cls-20{fill:#ed1c75;}.cls-21{fill:#a91d53;}.cls-22{fill:#c41e5c;}.cls-23{fill:#f47920;}.cls-24{fill:#febc11;}.cls-25{opacity:0.43;mix-blend-mode:screen;}.cls-26{fill:#848484;}.cls-27{fill:#818181;}.cls-28{fill:#b3b3b3;}.cls-29{fill:#745ea8;}.cls-30{fill:#6b6c6c;}.cls-31{fill:#bfbebe;}.cls-32{fill:#a9a8a8;}</style></defs><title>building3</title><g class="cls-1"><g id="Layer_1" data-name="Layer 1"><path class="cls-2" d="M0,253.5l0,0"/><g class="cls-1"><polygon class="cls-3" points="21.88 393.29 21.88 395.99 95.97 428.16 95.97 425.46 21.88 393.29"/><polygon class="cls-4" points="95.97 425.46 95.97 428.16 132.39 403.13 132.39 400.43 95.97 425.46"/><polygon class="cls-5" points="21.88 393.29 95.97 425.46 132.39 400.43 58.29 368.26 21.88 393.29"/></g><path class="cls-6" d="M24.57,49a6.23,6.23,0,0,0,.3,1.85,1,1,0,0,1,0,.14,7.86,7.86,0,0,0,.86,1.68l.16.24a9.92,9.92,0,0,0,1.36,1.5c.28.25.62.48.94.73a12.41,12.41,0,0,0,1.45,1,18.89,18.89,0,0,0,1.8.91l-.67,237.44a15.92,15.92,0,0,1-1.8-.91c-.2-.11-.39-.23-.58-.35s-.58-.45-.87-.67-.66-.48-.94-.73c-.06-.06-.15-.11-.21-.16a9.82,9.82,0,0,1-1-1.14c0-.06-.07-.13-.12-.2s-.11-.16-.16-.24-.28-.39-.39-.6a6.55,6.55,0,0,1-.44-1,.38.38,0,0,1,0-.1s0-.09,0-.14a6.21,6.21,0,0,1-.2-.74,5.54,5.54,0,0,1-.1-1v-.12Z"/><polygon class="cls-7" points="31.48 57.04 30.81 294.48 169.62 355.49 170.3 118.05 31.48 57.04"/><path class="cls-6" d="M175,357.51a52.82,52.82,0,0,1-5.41-2l.68-237.44a53.54,53.54,0,0,0,6,2.16c1.41.42,2.88.73,4.34,1.06,1,.21,1.9.48,2.88.65.43.08.87.12,1.3.19q2.72.42,5.48.63c.46,0,.92.07,1.38.09q3.15.18,6.32.07l1-.05c2.18-.1,4.34-.29,6.47-.59l.6-.1c2-.29,3.87-.69,5.75-1.15l1.16-.28a51.89,51.89,0,0,0,5.92-1.93,43.86,43.86,0,0,0,6.13-2.92,28,28,0,0,0,9-7.91,15.71,15.71,0,0,0,3.06-9h0l-.67,237.44c0,6.18-4.11,12.32-12.1,17a45,45,0,0,1-6.13,2.93,1.63,1.63,0,0,0-.19.09c-1.62.63-3.3,1.18-5,1.67l-.69.16c-.38.11-.77.19-1.16.28-.84.21-1.68.44-2.54.61-1.05.21-2.13.38-3.22.54-.2,0-.4.08-.6.1l-.29.06c-1.34.18-2.69.32-4,.43-.7.06-1.41.07-2.12.1l-1,0c-.3,0-.61.05-.92.05-1.4,0-2.81,0-4.22,0l-1.17-.09c-.47,0-.92-.06-1.38-.09-.67-.05-1.35-.07-2-.14-1.17-.12-2.31-.31-3.46-.49-.43-.07-.87-.11-1.3-.18l-.47-.07c-.82-.15-1.6-.41-2.41-.59-1.47-.33-2.94-.64-4.35-1.06C175.42,357.59,175.22,357.56,175,357.51Z"/><g class="cls-8"><path class="cls-9" d="M24.67,89.28a7.44,7.44,0,0,0,.2.74.57.57,0,0,1,0,.14l0,.09a8.57,8.57,0,0,0,.44,1c.11.2.26.4.39.59s.1.17.16.25.08.13.13.19a9.71,9.71,0,0,0,1,1.14c.06.06.15.11.21.16a11.71,11.71,0,0,0,.94.73c.3.23.54.47.87.68l.58.35c.56.32,1.16.62,1.8.91h0l0,2c-.64-.29-1.24-.59-1.8-.91-.2-.11-.39-.23-.58-.35s-.57-.45-.87-.68a11.71,11.71,0,0,1-.94-.73c-.06,0-.15-.1-.21-.16a9.71,9.71,0,0,1-1-1.14c0-.06-.08-.13-.13-.19l-.16-.24c-.13-.2-.28-.4-.39-.6a8.57,8.57,0,0,1-.44-1l0-.09a.57.57,0,0,0,0-.14,6.77,6.77,0,0,1-.2-.74,6.64,6.64,0,0,1-.1-1V90.2l0-1.64A5.85,5.85,0,0,0,24.67,89.28Z"/><path class="cls-9" d="M175.71,159.26c.18.06.38.09.57.14,1.41.43,2.87.74,4.34,1.06.81.18,1.59.44,2.41.59l.47.07c.43.07.87.12,1.3.18,1.15.18,2.3.37,3.46.49.67.07,1.35.09,2,.14l1.38.1c.39,0,.78.07,1.17.08,1.41,0,2.82.06,4.22,0,.31,0,.62,0,.93,0l1,0c.71,0,1.42-.05,2.12-.11,1.36-.1,2.71-.25,4.05-.43l.3,0,.6-.1c1.08-.17,2.16-.33,3.22-.55.86-.17,1.69-.4,2.53-.6l1.16-.28.7-.17q2.59-.72,5-1.67l.18-.09a45,45,0,0,0,6.13-2.92c8-4.65,12.09-10.79,12.1-17v2c0,6.18-4.1,12.32-12.1,17a43.86,43.86,0,0,1-6.13,2.92l-.18.09q-2.44.94-5,1.67c-.23.07-.47.11-.7.17l-1.16.28c-.84.2-1.67.43-2.53.6-1.06.22-2.14.39-3.22.55l-.6.1-.3,0c-1.34.18-2.69.33-4.05.43-.7.06-1.41.07-2.12.11l-1,0-.93.05c-1.4,0-2.81,0-4.22,0-.39,0-.78-.06-1.17-.08l-1.38-.1c-.67-.05-1.35-.07-2-.14-1.16-.12-2.31-.31-3.46-.49-.43-.06-.87-.1-1.3-.18l-.47-.07c-.82-.15-1.6-.41-2.41-.59-1.47-.32-2.93-.63-4.34-1.06-.19-.05-.39-.08-.57-.14a51.09,51.09,0,0,1-5.41-2l-138.82-61,0-2,138.78,61A51.09,51.09,0,0,0,175.71,159.26Z"/><path class="cls-9" d="M24.57,88.17l0,.39c0-.1,0-.18,0-.27Z"/></g><path class="cls-10" d="M24.91,49a6.23,6.23,0,0,0,.3,1.85s0,.1,0,.14a7,7,0,0,0,.86,1.68l.16.24a9.42,9.42,0,0,0,1.36,1.5c.27.25.62.48.94.73a12.41,12.41,0,0,0,1.45,1,16.78,16.78,0,0,0,1.8.91l-.67,39.37a18,18,0,0,1-1.81-.91l-.57-.35a10.24,10.24,0,0,1-.88-.68c-.32-.24-.66-.47-.94-.72-.06-.06-.15-.11-.21-.17a9.05,9.05,0,0,1-1-1.14c0-.06-.08-.12-.13-.19L25.44,92a6.79,6.79,0,0,1-.39-.6,6.61,6.61,0,0,1-.45-1s0-.07,0-.1a.74.74,0,0,1,0-.14,5.08,5.08,0,0,1-.2-.74,5.56,5.56,0,0,1-.11-1v-.12Z"/><polygon class="cls-10" points="31.82 57.04 31.15 96.41 169.96 157.42 170.63 118.05 31.82 57.04"/><path class="cls-10" d="M175.37,159.44a55.27,55.27,0,0,1-5.41-2l.67-39.37a54.28,54.28,0,0,0,6,2.16c1.41.42,2.88.73,4.35,1.06,1,.21,1.9.48,2.88.65.43.08.86.12,1.29.19,1.81.28,3.65.49,5.49.63.46,0,.91.07,1.37.09q3.16.18,6.33.07l1-.05c2.17-.1,4.34-.29,6.46-.59l.6-.1c2-.29,3.88-.69,5.76-1.15l1.16-.28a52.54,52.54,0,0,0,5.92-1.93,45,45,0,0,0,6.13-2.92,28,28,0,0,0,9-7.91,15.78,15.78,0,0,0,3.06-9h0l-.67,39.37c0,6.18-4.11,12.31-12.1,17a45,45,0,0,1-6.13,2.92l-.19.09c-1.62.63-3.31,1.19-5,1.68l-.69.16-1.17.28c-.84.21-1.67.43-2.53.61-1.06.21-2.14.38-3.22.54l-.6.1-.3.05c-1.33.19-2.69.33-4,.44-.71,0-1.42.07-2.13.1l-1,.05-.92,0c-1.41,0-2.82,0-4.22,0-.4,0-.78-.06-1.18-.08s-.92-.06-1.38-.09c-.67-.05-1.34-.08-2-.14-1.17-.12-2.31-.32-3.46-.49-.44-.07-.87-.11-1.3-.19-.16,0-.32,0-.47-.06-.83-.15-1.6-.41-2.42-.59-1.46-.33-2.93-.64-4.34-1.07Z"/><path class="cls-10" d="M24,261.37a6.17,6.17,0,0,0,.31,1.84.83.83,0,0,0,0,.15,7,7,0,0,0,.86,1.68l.16.24a9.42,9.42,0,0,0,1.36,1.5c.28.25.62.49.94.73a13,13,0,0,0,1.46,1,18.86,18.86,0,0,0,1.8.91l-.68,86a16.81,16.81,0,0,1-1.8-.91c-.2-.11-.39-.23-.58-.35a10.07,10.07,0,0,1-.87-.68c-.32-.24-.66-.47-.94-.72l-.22-.17a10.7,10.7,0,0,1-1-1.14c-.05-.06-.08-.13-.13-.19l-.16-.25c-.13-.19-.28-.39-.39-.59a8.57,8.57,0,0,1-.44-1l0-.1a1,1,0,0,0,0-.14c-.07-.24-.15-.49-.2-.74a6.64,6.64,0,0,1-.1-1v-.12Z"/><polygon class="cls-10" points="30.96 269.45 30.29 355.47 169.35 416.56 170.03 330.54 30.96 269.45"/><path class="cls-10" d="M174.78,418.58a50.12,50.12,0,0,1-5.43-2l.68-86a56.58,56.58,0,0,0,6,2.16c1.41.42,2.89.73,4.35,1.06,1,.21,1.91.49,2.89.66.43.07.87.11,1.3.18,1.81.28,3.65.49,5.49.63l1.38.1c2.11.11,4.22.14,6.33.07l1,0c2.19-.11,4.35-.29,6.48-.59l.6-.1c2-.3,3.89-.7,5.77-1.16.39-.09.78-.17,1.16-.28a52.88,52.88,0,0,0,5.94-1.93,45.13,45.13,0,0,0,6.14-2.93,28,28,0,0,0,9.05-7.91,15.81,15.81,0,0,0,3.07-9.07h0l-.68,86c0,6.18-4.11,12.33-12.12,17a44.57,44.57,0,0,1-6.14,2.93l-.19.09a52.39,52.39,0,0,1-5.05,1.67c-.22.07-.46.11-.69.17l-1.17.28c-.84.21-1.67.43-2.53.61-1.06.21-2.15.38-3.23.54l-.6.1-.3.05c-1.34.19-2.69.33-4.05.44-.71.05-1.42.07-2.13.1l-1,.06c-.31,0-.62,0-.93,0-1.41,0-2.82,0-4.23,0-.39,0-.78-.06-1.17-.08s-.92-.06-1.39-.09c-.67-.05-1.35-.07-2-.14-1.17-.12-2.32-.32-3.47-.49-.44-.07-.87-.11-1.3-.19-.16,0-.32,0-.47-.06-.83-.15-1.61-.41-2.42-.59-1.47-.33-2.94-.64-4.35-1.07C175.16,418.67,175,418.64,174.78,418.58Z"/><path class="cls-11" d="M121.22,2.94c-6.69-3.86-17.68-4-24.53,0l-67.07,39c-6.86,4-6.62,10.35.06,14.21a18.89,18.89,0,0,0,1.8.91l138.82,61c16.65,7.3,40,6.38,54.74-2.17s16.19-22.07,3.53-31.7L122.79,4A15.81,15.81,0,0,0,121.22,2.94Z"/><g class="cls-1"><polygon class="cls-11" points="49.41 125.58 49.99 125.21 44.03 122.59 43.46 122.97 49.41 125.58"/><polygon class="cls-12" points="43.46 122.97 44.03 122.59 44.06 114.42 43.48 114.8 43.46 122.97"/><polygon class="cls-13" points="43.48 114.8 43.46 122.97 49.41 125.58 49.44 117.41 43.48 114.8"/><polygon class="cls-14" points="49.41 125.58 49.99 125.2 50.02 117.03 49.44 117.41 49.41 125.58"/><polygon class="cls-15" points="49.44 117.41 50.02 117.03 44.06 114.42 43.48 114.8 49.44 117.41"/><polygon class="cls-12" points="50.18 126.99 50.76 126.61 50.79 116.3 50.21 116.67 50.18 126.99"/><polygon class="cls-11" points="50.21 116.67 50.79 116.3 43.27 113 42.69 113.38 50.21 116.67"/><path class="cls-2" d="M50.18,127l-7.52-3.29,0-10.32,7.52,3.3Zm-6.72-4,5.95,2.61,0-8.17-6-2.61,0,8.17"/></g><g class="cls-1"><polygon class="cls-11" points="49.41 143.22 49.99 142.84 44.03 140.23 43.46 140.61 49.41 143.22"/><polygon class="cls-12" points="43.46 140.61 44.03 140.23 44.06 132.06 43.48 132.44 43.46 140.61"/><polygon class="cls-13" points="43.48 132.44 43.46 140.61 49.41 143.22 49.44 135.05 43.48 132.44"/><polygon class="cls-14" points="49.41 143.22 49.99 142.84 50.02 134.67 49.44 135.05 49.41 143.22"/><polygon class="cls-15" points="49.44 135.05 50.02 134.67 44.06 132.06 43.48 132.44 49.44 135.05"/><polygon class="cls-12" points="50.18 144.63 50.76 144.25 50.79 133.93 50.21 134.31 50.18 144.63"/><polygon class="cls-11" points="50.21 134.31 50.79 133.93 43.27 130.64 42.69 131.02 50.21 134.31"/><path class="cls-2" d="M50.18,144.63l-7.52-3.3,0-10.31,7.52,3.29Zm-6.72-4,5.95,2.61,0-8.17-6-2.61,0,8.17"/></g><g class="cls-1"><polygon class="cls-11" points="49.41 160.85 49.99 160.48 44.03 157.87 43.46 158.24 49.41 160.85"/><polygon class="cls-12" points="43.46 158.24 44.03 157.87 44.06 149.69 43.48 150.07 43.46 158.24"/><polygon class="cls-13" points="43.48 150.07 43.46 158.24 49.41 160.85 49.44 152.68 43.48 150.07"/><polygon class="cls-14" points="49.41 160.85 49.99 160.48 50.02 152.31 49.44 152.68 49.41 160.85"/><polygon class="cls-15" points="49.44 152.68 50.02 152.31 44.06 149.69 43.48 150.07 49.44 152.68"/><polygon class="cls-12" points="50.18 162.26 50.76 161.89 50.79 151.57 50.21 151.95 50.18 162.26"/><polygon class="cls-11" points="50.21 151.95 50.79 151.57 43.27 148.28 42.69 148.65 50.21 151.95"/><path class="cls-2" d="M50.18,162.26,42.66,159l0-10.32,7.52,3.3Zm-6.72-4,5.95,2.61,0-8.17-6-2.61,0,8.17"/></g><g class="cls-1"><polygon class="cls-11" points="49.41 178.19 49.99 177.82 44.03 175.21 43.46 175.58 49.41 178.19"/><polygon class="cls-12" points="43.46 175.58 44.03 175.21 44.06 167.04 43.48 167.41 43.46 175.58"/><polygon class="cls-13" points="43.48 167.41 43.46 175.58 49.41 178.19 49.44 170.03 43.48 167.41"/><polygon class="cls-14" points="49.41 178.19 49.99 177.82 50.02 169.65 49.44 170.03 49.41 178.19"/><polygon class="cls-15" points="49.44 170.03 50.02 169.65 44.06 167.04 43.48 167.41 49.44 170.03"/><polygon class="cls-12" points="50.18 179.6 50.76 179.23 50.79 168.91 50.21 169.29 50.18 179.6"/><polygon class="cls-11" points="50.21 169.29 50.79 168.91 43.27 165.62 42.69 165.99 50.21 169.29"/><path class="cls-2" d="M50.18,179.61l-7.52-3.3,0-10.32,7.52,3.3Zm-6.72-4,5.95,2.61,0-8.17-6-2.61,0,8.17"/></g><g class="cls-1"><polygon class="cls-11" points="49.41 195.83 49.99 195.46 44.03 192.84 43.46 193.22 49.41 195.83"/><polygon class="cls-12" points="43.46 193.22 44.03 192.84 44.06 184.67 43.48 185.05 43.46 193.22"/><polygon class="cls-13" points="43.48 185.05 43.46 193.22 49.41 195.83 49.44 187.66 43.48 185.05"/><polygon class="cls-14" points="49.41 195.83 49.99 195.45 50.02 187.28 49.44 187.66 49.41 195.83"/><polygon class="cls-15" points="49.44 187.66 50.02 187.28 44.06 184.67 43.48 185.05 49.44 187.66"/><polygon class="cls-12" points="50.18 197.24 50.76 196.86 50.79 186.55 50.21 186.92 50.18 197.24"/><polygon class="cls-11" points="50.21 186.92 50.79 186.55 43.27 183.25 42.69 183.63 50.21 186.92"/><path class="cls-2" d="M50.18,197.24,42.66,194l0-10.32,7.52,3.29Zm-6.72-4,5.95,2.61,0-8.17-6-2.61,0,8.17"/></g><g class="cls-1"><polygon class="cls-11" points="49.41 213.47 49.99 213.09 44.03 210.48 43.46 210.85 49.41 213.47"/><polygon class="cls-12" points="43.46 210.85 44.03 210.48 44.06 202.31 43.48 202.69 43.46 210.85"/><polygon class="cls-13" points="43.48 202.69 43.46 210.85 49.41 213.47 49.44 205.29 43.48 202.69"/><polygon class="cls-14" points="49.41 213.47 49.99 213.09 50.02 204.92 49.44 205.29 49.41 213.47"/><polygon class="cls-15" points="49.44 205.29 50.02 204.92 44.06 202.31 43.48 202.69 49.44 205.29"/><polygon class="cls-12" points="50.18 214.88 50.76 214.5 50.79 204.18 50.21 204.56 50.18 214.88"/><polygon class="cls-11" points="50.21 204.56 50.79 204.18 43.27 200.89 42.69 201.27 50.21 204.56"/><path class="cls-2" d="M50.18,214.88l-7.52-3.3,0-10.31,7.52,3.29Zm-6.72-4,5.95,2.61,0-8.17-6-2.61,0,8.17"/></g><g class="cls-1"><polygon class="cls-11" points="49.41 230.81 49.99 230.43 44.03 227.82 43.46 228.2 49.41 230.81"/><polygon class="cls-12" points="43.46 228.2 44.03 227.82 44.06 219.65 43.48 220.03 43.46 228.2"/><polygon class="cls-13" points="43.48 220.03 43.46 228.2 49.41 230.81 49.44 222.64 43.48 220.03"/><polygon class="cls-14" points="49.41 230.81 49.99 230.43 50.02 222.26 49.44 222.64 49.41 230.81"/><polygon class="cls-15" points="49.44 222.64 50.02 222.26 44.06 219.65 43.48 220.03 49.44 222.64"/><polygon class="cls-12" points="50.18 232.22 50.76 231.84 50.79 221.52 50.21 221.9 50.18 232.22"/><polygon class="cls-11" points="50.21 221.9 50.79 221.52 43.27 218.23 42.69 218.6 50.21 221.9"/><path class="cls-2" d="M50.18,232.22l-7.52-3.3,0-10.31,7.52,3.29Zm-6.72-4,5.95,2.61,0-8.17-6-2.62,0,8.18"/></g><g class="cls-1"><polygon class="cls-11" points="49.41 248.44 49.99 248.07 44.03 245.46 43.46 245.83 49.41 248.44"/><polygon class="cls-12" points="43.46 245.83 44.03 245.46 44.06 237.28 43.48 237.66 43.46 245.83"/><polygon class="cls-13" points="43.48 237.66 43.46 245.83 49.41 248.44 49.44 240.27 43.48 237.66"/><polygon class="cls-14" points="49.41 248.44 49.99 248.07 50.02 239.9 49.44 240.27 49.41 248.44"/><polygon class="cls-15" points="49.44 240.27 50.02 239.9 44.06 237.28 43.48 237.66 49.44 240.27"/><polygon class="cls-12" points="50.18 249.85 50.76 249.48 50.79 239.16 50.21 239.54 50.18 249.85"/><polygon class="cls-11" points="50.21 239.54 50.79 239.16 43.27 235.87 42.69 236.24 50.21 239.54"/><path class="cls-2" d="M50.18,249.85l-7.52-3.29,0-10.32,7.52,3.3Zm-6.72-4,5.95,2.61,0-8.17-6-2.61,0,8.17"/></g><g class="cls-1"><polygon class="cls-11" points="49.41 266.08 49.99 265.7 44.03 263.09 43.46 263.47 49.41 266.08"/><polygon class="cls-12" points="43.46 263.47 44.03 263.09 44.06 254.92 43.48 255.3 43.46 263.47"/><polygon class="cls-13" points="43.48 255.3 43.46 263.47 49.41 266.08 49.44 257.91 43.48 255.3"/><polygon class="cls-14" points="49.41 266.08 49.99 265.7 50.02 257.53 49.44 257.91 49.41 266.08"/><polygon class="cls-15" points="49.44 257.91 50.02 257.53 44.06 254.92 43.48 255.3 49.44 257.91"/><polygon class="cls-12" points="50.18 267.49 50.76 267.11 50.79 256.79 50.21 257.17 50.18 267.49"/><polygon class="cls-11" points="50.21 257.17 50.79 256.79 43.27 253.5 42.69 253.88 50.21 257.17"/><path class="cls-2" d="M50.18,267.49l-7.52-3.29,0-10.32,7.52,3.29Zm-6.72-4,5.95,2.61,0-8.17-6-2.61,0,8.17"/></g><g class="cls-1"><polygon class="cls-11" points="66.65 133.35 67.23 132.97 61.27 130.36 60.69 130.74 66.65 133.35"/><polygon class="cls-12" points="60.69 130.74 61.27 130.36 61.3 122.19 60.71 122.57 60.69 130.74"/><polygon class="cls-13" points="60.71 122.57 60.69 130.74 66.65 133.35 66.67 125.18 60.71 122.57"/><polygon class="cls-14" points="66.65 133.35 67.23 132.97 67.25 124.8 66.67 125.18 66.65 133.35"/><polygon class="cls-15" points="66.67 125.18 67.25 124.8 61.3 122.19 60.71 122.57 66.67 125.18"/><polygon class="cls-12" points="67.41 134.76 67.99 134.38 68.02 124.06 67.44 124.44 67.41 134.76"/><polygon class="cls-11" points="67.44 124.44 68.02 124.06 60.51 120.77 59.93 121.15 67.44 124.44"/><path class="cls-2" d="M67.41,134.76l-7.51-3.29,0-10.32,7.51,3.29Zm-6.72-4,6,2.61,0-8.17-6-2.61,0,8.17"/></g><g class="cls-1"><polygon class="cls-11" points="66.65 150.99 67.23 150.61 61.27 148 60.69 148.38 66.65 150.99"/><polygon class="cls-12" points="60.69 148.38 61.27 148 61.3 139.83 60.71 140.2 60.69 148.38"/><polygon class="cls-13" points="60.71 140.2 60.69 148.38 66.65 150.99 66.67 142.81 60.71 140.2"/><polygon class="cls-14" points="66.65 150.99 67.23 150.61 67.25 142.44 66.67 142.81 66.65 150.99"/><polygon class="cls-15" points="66.67 142.81 67.25 142.44 61.3 139.83 60.71 140.2 66.67 142.81"/><polygon class="cls-12" points="67.41 152.4 67.99 152.02 68.02 141.7 67.44 142.08 67.41 152.4"/><polygon class="cls-11" points="67.44 142.08 68.02 141.7 60.51 138.41 59.93 138.78 67.44 142.08"/><path class="cls-2" d="M67.41,152.4l-7.51-3.3,0-10.32,7.51,3.3Zm-6.72-4,6,2.61,0-8.17-6-2.62,0,8.18"/></g><g class="cls-1"><polygon class="cls-11" points="66.65 168.62 67.23 168.25 61.27 165.63 60.69 166.01 66.65 168.62"/><polygon class="cls-12" points="60.69 166.01 61.27 165.63 61.3 157.46 60.71 157.84 60.69 166.01"/><polygon class="cls-13" points="60.71 157.84 60.69 166.01 66.65 168.62 66.67 160.45 60.71 157.84"/><polygon class="cls-14" points="66.65 168.62 67.23 168.24 67.25 160.07 66.67 160.45 66.65 168.62"/><polygon class="cls-15" points="66.67 160.45 67.25 160.07 61.3 157.46 60.71 157.84 66.67 160.45"/><polygon class="cls-12" points="67.41 170.03 67.99 169.65 68.02 159.34 67.44 159.71 67.41 170.03"/><polygon class="cls-11" points="67.44 159.71 68.02 159.34 60.51 156.04 59.93 156.42 67.44 159.71"/><path class="cls-2" d="M67.41,170l-7.51-3.29,0-10.32,7.51,3.29Zm-6.72-4,6,2.61,0-8.17-6-2.61,0,8.17"/></g><g class="cls-1"><polygon class="cls-11" points="66.65 185.96 67.23 185.59 61.27 182.97 60.69 183.35 66.65 185.96"/><polygon class="cls-12" points="60.69 183.35 61.27 182.97 61.3 174.8 60.71 175.18 60.69 183.35"/><polygon class="cls-13" points="60.71 175.18 60.69 183.35 66.65 185.96 66.67 177.79 60.71 175.18"/><polygon class="cls-14" points="66.65 185.96 67.23 185.59 67.25 177.41 66.67 177.79 66.65 185.96"/><polygon class="cls-15" points="66.67 177.79 67.25 177.41 61.3 174.8 60.71 175.18 66.67 177.79"/><polygon class="cls-12" points="67.41 187.37 67.99 187 68.02 176.68 67.44 177.06 67.41 187.37"/><polygon class="cls-11" points="67.44 177.06 68.02 176.68 60.51 173.38 59.93 173.76 67.44 177.06"/><path class="cls-2" d="M67.41,187.37l-7.51-3.29,0-10.32,7.51,3.3Zm-6.72-4,6,2.61,0-8.17-6-2.61,0,8.17"/></g><g class="cls-1"><polygon class="cls-11" points="66.65 203.6 67.23 203.22 61.27 200.61 60.69 200.99 66.65 203.6"/><polygon class="cls-12" points="60.69 200.99 61.27 200.61 61.3 192.44 60.71 192.81 60.69 200.99"/><polygon class="cls-13" points="60.71 192.81 60.69 200.99 66.65 203.6 66.67 195.43 60.71 192.81"/><polygon class="cls-14" points="66.65 203.6 67.23 203.22 67.25 195.05 66.67 195.43 66.65 203.6"/><polygon class="cls-15" points="66.67 195.43 67.25 195.05 61.3 192.44 60.71 192.81 66.67 195.43"/><polygon class="cls-12" points="67.41 205.01 67.99 204.63 68.02 194.31 67.44 194.69 67.41 205.01"/><polygon class="cls-11" points="67.44 194.69 68.02 194.31 60.51 191.02 59.93 191.4 67.44 194.69"/><path class="cls-2" d="M67.41,205l-7.51-3.3,0-10.31,7.51,3.29Zm-6.72-4,6,2.61,0-8.17-6-2.61,0,8.17"/></g><g class="cls-1"><polygon class="cls-11" points="66.65 221.23 67.23 220.86 61.27 218.25 60.69 218.62 66.65 221.23"/><polygon class="cls-12" points="60.69 218.62 61.27 218.25 61.3 210.08 60.71 210.45 60.69 218.62"/><polygon class="cls-13" points="60.71 210.45 60.69 218.62 66.65 221.23 66.67 213.06 60.71 210.45"/><polygon class="cls-14" points="66.65 221.23 67.23 220.86 67.25 212.69 66.67 213.06 66.65 221.23"/><polygon class="cls-15" points="66.67 213.06 67.25 212.69 61.3 210.08 60.71 210.45 66.67 213.06"/><polygon class="cls-12" points="67.41 222.64 67.99 222.27 68.02 211.95 67.44 212.33 67.41 222.64"/><polygon class="cls-11" points="67.44 212.33 68.02 211.95 60.51 208.66 59.93 209.03 67.44 212.33"/><path class="cls-2" d="M67.41,222.64l-7.51-3.29,0-10.32,7.51,3.3Zm-6.72-4,6,2.61,0-8.17-6-2.61,0,8.17"/></g><g class="cls-1"><polygon class="cls-11" points="66.65 238.57 67.23 238.2 61.27 235.59 60.69 235.96 66.65 238.57"/><polygon class="cls-12" points="60.69 235.96 61.27 235.59 61.3 227.41 60.71 227.79 60.69 235.96"/><polygon class="cls-13" points="60.71 227.79 60.69 235.96 66.65 238.57 66.67 230.41 60.71 227.79"/><polygon class="cls-14" points="66.65 238.57 67.23 238.2 67.25 230.03 66.67 230.41 66.65 238.57"/><polygon class="cls-15" points="66.67 230.41 67.25 230.03 61.3 227.41 60.71 227.79 66.67 230.41"/><polygon class="cls-12" points="67.41 239.99 67.99 239.61 68.02 229.29 67.44 229.67 67.41 239.99"/><polygon class="cls-11" points="67.44 229.67 68.02 229.29 60.51 226 59.93 226.37 67.44 229.67"/><path class="cls-2" d="M67.41,240l-7.51-3.3,0-10.32,7.51,3.3Zm-6.72-4,6,2.62,0-8.17-6-2.62,0,8.17"/></g><g class="cls-1"><polygon class="cls-11" points="66.65 256.21 67.23 255.83 61.27 253.22 60.69 253.6 66.65 256.21"/><polygon class="cls-12" points="60.69 253.6 61.27 253.22 61.3 245.05 60.71 245.43 60.69 253.6"/><polygon class="cls-13" points="60.71 245.43 60.69 253.6 66.65 256.21 66.67 248.04 60.71 245.43"/><polygon class="cls-14" points="66.65 256.21 67.23 255.83 67.25 247.66 66.67 248.04 66.65 256.21"/><polygon class="cls-15" points="66.67 248.04 67.25 247.66 61.3 245.05 60.71 245.43 66.67 248.04"/><polygon class="cls-12" points="67.41 257.62 67.99 257.24 68.02 246.93 67.44 247.3 67.41 257.62"/><polygon class="cls-11" points="67.44 247.3 68.02 246.93 60.51 243.63 59.93 244.01 67.44 247.3"/><path class="cls-2" d="M67.41,257.62l-7.51-3.29,0-10.32,7.51,3.29Zm-6.72-4,6,2.61,0-8.17-6-2.61,0,8.17"/></g><g class="cls-1"><polygon class="cls-11" points="66.65 273.85 67.23 273.47 61.27 270.86 60.69 271.24 66.65 273.85"/><polygon class="cls-12" points="60.69 271.24 61.27 270.86 61.3 262.69 60.71 263.06 60.69 271.24"/><polygon class="cls-13" points="60.71 263.06 60.69 271.24 66.65 273.85 66.67 265.68 60.71 263.06"/><polygon class="cls-14" points="66.65 273.85 67.23 273.47 67.25 265.3 66.67 265.68 66.65 273.85"/><polygon class="cls-15" points="66.67 265.68 67.25 265.3 61.3 262.69 60.71 263.06 66.67 265.68"/><polygon class="cls-12" points="67.41 275.26 67.99 274.88 68.02 264.56 67.44 264.94 67.41 275.26"/><polygon class="cls-11" points="67.44 264.94 68.02 264.56 60.51 261.27 59.93 261.64 67.44 264.94"/><path class="cls-2" d="M67.41,275.26,59.9,272l0-10.32,7.51,3.3Zm-6.72-4,6,2.61,0-8.17-6-2.62,0,8.18"/></g><g class="cls-1"><polygon class="cls-11" points="83.88 141.12 84.46 140.74 78.5 138.13 77.92 138.51 83.88 141.12"/><polygon class="cls-12" points="77.92 138.51 78.5 138.13 78.53 129.96 77.95 130.34 77.92 138.51"/><polygon class="cls-13" points="77.95 130.34 77.92 138.5 83.88 141.12 83.91 132.95 77.95 130.34"/><polygon class="cls-14" points="83.88 141.12 84.46 140.74 84.48 132.57 83.91 132.95 83.88 141.12"/><polygon class="cls-15" points="83.91 132.95 84.48 132.57 78.53 129.96 77.95 130.34 83.91 132.95"/><polygon class="cls-12" points="84.65 142.53 85.23 142.15 85.26 131.83 84.68 132.21 84.65 142.53"/><polygon class="cls-11" points="84.68 132.21 85.26 131.83 77.74 128.54 77.16 128.92 84.68 132.21"/><path class="cls-2" d="M84.65,142.53l-7.52-3.3,0-10.31,7.52,3.29Zm-6.73-4,6,2.61,0-8.17-6-2.61,0,8.17"/></g><g class="cls-1"><polygon class="cls-11" points="83.88 158.75 84.46 158.38 78.5 155.77 77.92 156.14 83.88 158.75"/><polygon class="cls-12" points="77.92 156.14 78.5 155.77 78.53 147.59 77.95 147.97 77.92 156.14"/><polygon class="cls-13" points="77.95 147.97 77.92 156.14 83.88 158.75 83.91 150.58 77.95 147.97"/><polygon class="cls-14" points="83.88 158.75 84.46 158.38 84.48 150.21 83.91 150.58 83.88 158.75"/><polygon class="cls-15" points="83.91 150.58 84.48 150.21 78.53 147.59 77.95 147.97 83.91 150.58"/><polygon class="cls-12" points="84.65 160.16 85.23 159.79 85.26 149.47 84.68 149.85 84.65 160.16"/><polygon class="cls-11" points="84.68 149.85 85.26 149.47 77.74 146.17 77.16 146.55 84.68 149.85"/><path class="cls-2" d="M84.65,160.16l-7.52-3.29,0-10.32,7.52,3.3Zm-6.73-4,6,2.61,0-8.17L78,148l0,8.17"/></g><g class="cls-1"><polygon class="cls-11" points="83.88 176.39 84.46 176.01 78.5 173.4 77.92 173.78 83.88 176.39"/><polygon class="cls-12" points="77.92 173.78 78.5 173.4 78.53 165.23 77.95 165.61 77.92 173.78"/><polygon class="cls-13" points="77.95 165.61 77.92 173.78 83.88 176.39 83.91 168.22 77.95 165.61"/><polygon class="cls-14" points="83.88 176.39 84.46 176.01 84.48 167.84 83.91 168.22 83.88 176.39"/><polygon class="cls-15" points="83.91 168.22 84.48 167.84 78.53 165.23 77.95 165.61 83.91 168.22"/><polygon class="cls-12" points="84.65 177.8 85.23 177.42 85.26 167.1 84.68 167.48 84.65 177.8"/><polygon class="cls-11" points="84.68 167.48 85.26 167.1 77.74 163.81 77.16 164.19 84.68 167.48"/><path class="cls-2" d="M84.65,177.8l-7.52-3.3,0-10.31,7.52,3.29Zm-6.73-4,6,2.61,0-8.17-6-2.61,0,8.17"/></g><g class="cls-1"><polygon class="cls-11" points="83.88 193.73 84.46 193.35 78.5 190.74 77.92 191.12 83.88 193.73"/><polygon class="cls-12" points="77.92 191.12 78.5 190.74 78.53 182.57 77.95 182.95 77.92 191.12"/><polygon class="cls-13" points="77.95 182.95 77.92 191.12 83.88 193.73 83.91 185.56 77.95 182.95"/><polygon class="cls-14" points="83.88 193.73 84.46 193.35 84.48 185.18 83.91 185.56 83.88 193.73"/><polygon class="cls-15" points="83.91 185.56 84.48 185.18 78.53 182.57 77.95 182.95 83.91 185.56"/><polygon class="cls-12" points="84.65 195.14 85.23 194.76 85.26 184.45 84.68 184.82 84.65 195.14"/><polygon class="cls-11" points="84.68 184.82 85.26 184.45 77.74 181.15 77.16 181.53 84.68 184.82"/><path class="cls-2" d="M84.65,195.14l-7.52-3.29,0-10.32,7.52,3.29Zm-6.73-4,6,2.61,0-8.17L78,183l0,8.17"/></g><g class="cls-1"><polygon class="cls-11" points="83.88 211.37 84.46 210.99 78.5 208.38 77.92 208.76 83.88 211.37"/><polygon class="cls-12" points="77.92 208.76 78.5 208.38 78.53 200.21 77.95 200.58 77.92 208.76"/><polygon class="cls-13" points="77.95 200.58 77.92 208.75 83.88 211.37 83.91 203.2 77.95 200.58"/><polygon class="cls-14" points="83.88 211.37 84.46 210.99 84.48 202.82 83.91 203.2 83.88 211.37"/><polygon class="cls-15" points="83.91 203.2 84.48 202.82 78.53 200.21 77.95 200.58 83.91 203.2"/><polygon class="cls-12" points="84.65 212.78 85.23 212.4 85.26 202.08 84.68 202.46 84.65 212.78"/><polygon class="cls-11" points="84.68 202.46 85.26 202.08 77.74 198.79 77.16 199.16 84.68 202.46"/><path class="cls-2" d="M84.65,212.78l-7.52-3.3,0-10.32,7.52,3.3Zm-6.73-4,6,2.61,0-8.17-6-2.62,0,8.18"/></g><g class="cls-1"><polygon class="cls-11" points="83.88 229 84.46 228.62 78.5 226.01 77.92 226.39 83.88 229"/><polygon class="cls-12" points="77.92 226.39 78.5 226.01 78.53 217.84 77.95 218.22 77.92 226.39"/><polygon class="cls-13" points="77.95 218.22 77.92 226.39 83.88 229 83.91 220.83 77.95 218.22"/><polygon class="cls-14" points="83.88 229 84.46 228.62 84.48 220.45 83.91 220.83 83.88 229"/><polygon class="cls-15" points="83.91 220.83 84.48 220.45 78.53 217.84 77.95 218.22 83.91 220.83"/><polygon class="cls-12" points="84.65 230.41 85.23 230.03 85.26 219.72 84.68 220.09 84.65 230.41"/><polygon class="cls-11" points="84.68 220.09 85.26 219.72 77.74 216.42 77.16 216.8 84.68 220.09"/><path class="cls-2" d="M84.65,230.41l-7.52-3.29,0-10.32,7.52,3.29Zm-6.73-4,6,2.61,0-8.17-6-2.61,0,8.17"/></g><g class="cls-1"><polygon class="cls-11" points="83.88 246.34 84.46 245.97 78.5 243.35 77.92 243.73 83.88 246.34"/><polygon class="cls-12" points="77.92 243.73 78.5 243.35 78.53 235.18 77.95 235.56 77.92 243.73"/><polygon class="cls-13" points="77.95 235.56 77.92 243.73 83.88 246.34 83.91 238.17 77.95 235.56"/><polygon class="cls-14" points="83.88 246.34 84.46 245.97 84.48 237.8 83.91 238.17 83.88 246.34"/><polygon class="cls-15" points="83.91 238.17 84.48 237.8 78.53 235.18 77.95 235.56 83.91 238.17"/><polygon class="cls-12" points="84.65 247.75 85.23 247.38 85.26 237.06 84.68 237.43 84.65 247.75"/><polygon class="cls-11" points="84.68 237.43 85.26 237.06 77.74 233.76 77.16 234.14 84.68 237.43"/><path class="cls-2" d="M84.65,247.75l-7.52-3.29,0-10.32,7.52,3.29Zm-6.73-4,6,2.61,0-8.17-6-2.61,0,8.17"/></g><g class="cls-1"><polygon class="cls-11" points="83.88 263.98 84.46 263.6 78.5 260.99 77.92 261.37 83.88 263.98"/><polygon class="cls-12" points="77.92 261.37 78.5 260.99 78.53 252.82 77.95 253.2 77.92 261.37"/><polygon class="cls-13" points="77.95 253.2 77.92 261.37 83.88 263.98 83.91 255.81 77.95 253.2"/><polygon class="cls-14" points="83.88 263.98 84.46 263.6 84.48 255.43 83.91 255.81 83.88 263.98"/><polygon class="cls-15" points="83.91 255.81 84.48 255.43 78.53 252.82 77.95 253.2 83.91 255.81"/><polygon class="cls-12" points="84.65 265.39 85.23 265.01 85.26 254.69 84.68 255.07 84.65 265.39"/><polygon class="cls-11" points="84.68 255.07 85.26 254.69 77.74 251.4 77.16 251.78 84.68 255.07"/><path class="cls-2" d="M84.65,265.39l-7.52-3.3,0-10.31,7.52,3.29Zm-6.73-4,6,2.61,0-8.17-6-2.61,0,8.17"/></g><g class="cls-1"><polygon class="cls-11" points="83.88 281.61 84.46 281.24 78.5 278.63 77.92 279 83.88 281.61"/><polygon class="cls-12" points="77.92 279 78.5 278.63 78.53 270.45 77.95 270.83 77.92 279"/><polygon class="cls-13" points="77.95 270.83 77.92 279 83.88 281.61 83.91 273.44 77.95 270.83"/><polygon class="cls-14" points="83.88 281.61 84.46 281.24 84.48 273.07 83.91 273.44 83.88 281.61"/><polygon class="cls-15" points="83.91 273.44 84.48 273.07 78.53 270.45 77.95 270.83 83.91 273.44"/><polygon class="cls-12" points="84.65 283.02 85.23 282.65 85.26 272.33 84.68 272.71 84.65 283.02"/><polygon class="cls-11" points="84.68 272.71 85.26 272.33 77.74 269.04 77.16 269.41 84.68 272.71"/><path class="cls-2" d="M84.65,283l-7.52-3.29,0-10.32,7.52,3.3Zm-6.73-4,6,2.61,0-8.17-6-2.61,0,8.17"/></g><g class="cls-1"><polygon class="cls-11" points="101.12 148.89 101.7 148.51 95.74 145.9 95.16 146.27 101.12 148.89"/><polygon class="cls-12" points="95.16 146.27 95.74 145.9 95.76 137.72 95.18 138.1 95.16 146.27"/><polygon class="cls-13" points="95.18 138.1 95.16 146.27 101.12 148.89 101.14 140.71 95.18 138.1"/><polygon class="cls-14" points="101.12 148.89 101.7 148.51 101.72 140.34 101.14 140.71 101.12 148.89"/><polygon class="cls-15" points="101.14 140.71 101.72 140.34 95.76 137.72 95.18 138.1 101.14 140.71"/><polygon class="cls-12" points="101.88 150.29 102.46 149.92 102.49 139.6 101.91 139.98 101.88 150.29"/><polygon class="cls-11" points="101.91 139.98 102.49 139.6 94.98 136.31 94.4 136.68 101.91 139.98"/><path class="cls-2" d="M101.88,150.29,94.36,147l0-10.32,7.51,3.3Zm-6.72-4,6,2.62,0-8.18-6-2.61,0,8.17"/></g><g class="cls-1"><polygon class="cls-11" points="101.12 166.52 101.7 166.14 95.74 163.53 95.16 163.91 101.12 166.52"/><polygon class="cls-12" points="95.16 163.91 95.74 163.53 95.76 155.36 95.18 155.74 95.16 163.91"/><polygon class="cls-13" points="95.18 155.74 95.16 163.91 101.12 166.52 101.14 158.35 95.18 155.74"/><polygon class="cls-14" points="101.12 166.52 101.7 166.14 101.72 157.97 101.14 158.35 101.12 166.52"/><polygon class="cls-15" points="101.14 158.35 101.72 157.97 95.76 155.36 95.18 155.74 101.14 158.35"/><polygon class="cls-12" points="101.88 167.93 102.46 167.55 102.49 157.24 101.91 157.61 101.88 167.93"/><polygon class="cls-11" points="101.91 157.61 102.49 157.24 94.98 153.94 94.4 154.32 101.91 157.61"/><path class="cls-2" d="M101.88,167.93l-7.52-3.29,0-10.32,7.51,3.29Zm-6.72-4,6,2.61,0-8.17-6-2.61,0,8.17"/></g><g class="cls-1"><polygon class="cls-11" points="101.12 184.16 101.7 183.78 95.74 181.17 95.16 181.55 101.12 184.16"/><polygon class="cls-12" points="95.16 181.55 95.74 181.17 95.76 173 95.18 173.37 95.16 181.55"/><polygon class="cls-13" points="95.18 173.37 95.16 181.54 101.12 184.16 101.14 175.99 95.18 173.37"/><polygon class="cls-14" points="101.12 184.16 101.7 183.78 101.72 175.61 101.14 175.99 101.12 184.16"/><polygon class="cls-15" points="101.14 175.99 101.72 175.61 95.76 173 95.18 173.37 101.14 175.99"/><polygon class="cls-12" points="101.88 185.57 102.46 185.19 102.49 174.87 101.91 175.25 101.88 185.57"/><polygon class="cls-11" points="101.91 175.25 102.49 174.87 94.98 171.58 94.4 171.96 101.91 175.25"/><path class="cls-2" d="M101.88,185.57l-7.52-3.3,0-10.32,7.51,3.3Zm-6.72-4,6,2.61,0-8.17-6-2.62,0,8.18"/></g><g class="cls-1"><polygon class="cls-11" points="101.12 201.5 101.7 201.12 95.74 198.51 95.16 198.89 101.12 201.5"/><polygon class="cls-12" points="95.16 198.89 95.74 198.51 95.76 190.34 95.18 190.72 95.16 198.89"/><polygon class="cls-13" points="95.18 190.72 95.16 198.89 101.12 201.5 101.14 193.33 95.18 190.72"/><polygon class="cls-14" points="101.12 201.5 101.7 201.12 101.72 192.95 101.14 193.33 101.12 201.5"/><polygon class="cls-15" points="101.14 193.33 101.72 192.95 95.76 190.34 95.18 190.72 101.14 193.33"/><polygon class="cls-12" points="101.88 202.91 102.46 202.53 102.49 192.21 101.91 192.59 101.88 202.91"/><polygon class="cls-11" points="101.91 192.59 102.49 192.21 94.98 188.92 94.4 189.3 101.91 192.59"/><path class="cls-2" d="M101.88,202.91l-7.52-3.3,0-10.31,7.51,3.29Zm-6.72-4,6,2.61,0-8.17-6-2.61,0,8.17"/></g><g class="cls-1"><polygon class="cls-11" points="101.12 219.13 101.7 218.76 95.74 216.15 95.16 216.52 101.12 219.13"/><polygon class="cls-12" points="95.16 216.52 95.74 216.15 95.76 207.97 95.18 208.35 95.16 216.52"/><polygon class="cls-13" points="95.18 208.35 95.16 216.52 101.12 219.13 101.14 210.96 95.18 208.35"/><polygon class="cls-14" points="101.12 219.13 101.7 218.76 101.72 210.59 101.14 210.96 101.12 219.13"/><polygon class="cls-15" points="101.14 210.96 101.72 210.59 95.76 207.97 95.18 208.35 101.14 210.96"/><polygon class="cls-12" points="101.88 220.54 102.46 220.17 102.49 209.85 101.91 210.22 101.88 220.54"/><polygon class="cls-11" points="101.91 210.22 102.49 209.85 94.98 206.56 94.4 206.93 101.91 210.22"/><path class="cls-2" d="M101.88,220.54l-7.52-3.29,0-10.32,7.51,3.29Zm-6.72-4,6,2.61,0-8.17-6-2.61,0,8.17"/></g><g class="cls-1"><polygon class="cls-11" points="101.12 236.77 101.7 236.39 95.74 233.78 95.16 234.16 101.12 236.77"/><polygon class="cls-12" points="95.16 234.16 95.74 233.78 95.76 225.61 95.18 225.99 95.16 234.16"/><polygon class="cls-13" points="95.18 225.99 95.16 234.16 101.12 236.77 101.14 228.6 95.18 225.99"/><polygon class="cls-14" points="101.12 236.77 101.7 236.39 101.72 228.22 101.14 228.6 101.12 236.77"/><polygon class="cls-15" points="101.14 228.6 101.72 228.22 95.76 225.61 95.18 225.99 101.14 228.6"/><polygon class="cls-12" points="101.88 238.18 102.46 237.8 102.49 227.49 101.91 227.86 101.88 238.18"/><polygon class="cls-11" points="101.91 227.86 102.49 227.49 94.98 224.19 94.4 224.57 101.91 227.86"/><path class="cls-2" d="M101.88,238.18l-7.52-3.3,0-10.31,7.51,3.29Zm-6.72-4,6,2.61,0-8.17-6-2.61,0,8.17"/></g><g class="cls-1"><polygon class="cls-11" points="101.12 254.11 101.7 253.73 95.74 251.12 95.16 251.5 101.12 254.11"/><polygon class="cls-12" points="95.16 251.5 95.74 251.12 95.76 242.95 95.18 243.33 95.16 251.5"/><polygon class="cls-13" points="95.18 243.33 95.16 251.5 101.12 254.11 101.14 245.94 95.18 243.33"/><polygon class="cls-14" points="101.12 254.11 101.7 253.73 101.72 245.56 101.14 245.94 101.12 254.11"/><polygon class="cls-15" points="101.14 245.94 101.72 245.56 95.76 242.95 95.18 243.33 101.14 245.94"/><polygon class="cls-12" points="101.88 255.52 102.46 255.14 102.49 244.82 101.91 245.2 101.88 255.52"/><polygon class="cls-11" points="101.91 245.2 102.49 244.82 94.98 241.53 94.4 241.91 101.91 245.2"/><path class="cls-2" d="M101.88,255.52l-7.52-3.29,0-10.32,7.51,3.29Zm-6.72-4,6,2.61,0-8.17-6-2.61,0,8.17"/></g><g class="cls-1"><polygon class="cls-11" points="101.12 271.75 101.7 271.37 95.74 268.76 95.16 269.13 101.12 271.75"/><polygon class="cls-12" points="95.16 269.13 95.74 268.76 95.76 260.59 95.18 260.96 95.16 269.13"/><polygon class="cls-13" points="95.18 260.96 95.16 269.13 101.12 271.75 101.14 263.57 95.18 260.96"/><polygon class="cls-14" points="101.12 271.75 101.7 271.37 101.72 263.2 101.14 263.57 101.12 271.75"/><polygon class="cls-15" points="101.14 263.57 101.72 263.2 95.76 260.59 95.18 260.96 101.14 263.57"/><polygon class="cls-12" points="101.88 273.16 102.46 272.78 102.49 262.46 101.91 262.84 101.88 273.16"/><polygon class="cls-11" points="101.91 262.84 102.49 262.46 94.98 259.17 94.4 259.55 101.91 262.84"/><path class="cls-2" d="M101.88,273.16l-7.52-3.3,0-10.32,7.51,3.3Zm-6.72-4,6,2.62,0-8.18-6-2.61,0,8.17"/></g><g class="cls-1"><polygon class="cls-11" points="101.12 289.38 101.7 289 95.74 286.39 95.16 286.77 101.12 289.38"/><polygon class="cls-12" points="95.16 286.77 95.74 286.39 95.76 278.22 95.18 278.6 95.16 286.77"/><polygon class="cls-13" points="95.18 278.6 95.16 286.77 101.12 289.38 101.14 281.21 95.18 278.6"/><polygon class="cls-14" points="101.12 289.38 101.7 289 101.72 280.83 101.14 281.21 101.12 289.38"/><polygon class="cls-15" points="101.14 281.21 101.72 280.83 95.76 278.22 95.18 278.6 101.14 281.21"/><polygon class="cls-12" points="101.88 290.79 102.46 290.42 102.49 280.1 101.91 280.47 101.88 290.79"/><polygon class="cls-11" points="101.91 280.47 102.49 280.1 94.98 276.8 94.4 277.18 101.91 280.47"/><path class="cls-2" d="M101.88,290.79l-7.52-3.29,0-10.32,7.51,3.29Zm-6.72-4,6,2.61,0-8.17-6-2.61,0,8.17"/></g><g class="cls-1"><polygon class="cls-11" points="118.35 156.65 118.93 156.28 112.97 153.66 112.39 154.04 118.35 156.65"/><polygon class="cls-12" points="112.39 154.04 112.97 153.66 113 145.49 112.42 145.87 112.39 154.04"/><polygon class="cls-13" points="112.42 145.87 112.39 154.04 118.35 156.65 118.38 148.48 112.42 145.87"/><polygon class="cls-14" points="118.35 156.65 118.93 156.28 118.95 148.1 118.38 148.48 118.35 156.65"/><polygon class="cls-15" points="118.38 148.48 118.95 148.1 113 145.49 112.42 145.87 118.38 148.48"/><polygon class="cls-12" points="119.11 158.06 119.69 157.69 119.72 147.37 119.15 147.75 119.11 158.06"/><polygon class="cls-11" points="119.15 147.75 119.72 147.37 112.21 144.07 111.63 144.45 119.15 147.75"/><path class="cls-2" d="M119.11,158.06l-7.51-3.29,0-10.32,7.52,3.29Zm-6.72-4,6,2.61,0-8.17-6-2.61,0,8.17"/></g><g class="cls-1"><polygon class="cls-11" points="118.35 174.29 118.93 173.91 112.97 171.3 112.39 171.68 118.35 174.29"/><polygon class="cls-12" points="112.39 171.68 112.97 171.3 113 163.13 112.42 163.51 112.39 171.68"/><polygon class="cls-13" points="112.42 163.51 112.39 171.68 118.35 174.29 118.38 166.12 112.42 163.51"/><polygon class="cls-14" points="118.35 174.29 118.93 173.91 118.95 165.74 118.38 166.12 118.35 174.29"/><polygon class="cls-15" points="118.38 166.12 118.95 165.74 113 163.13 112.42 163.51 118.38 166.12"/><polygon class="cls-12" points="119.11 175.7 119.69 175.32 119.72 165 119.15 165.38 119.11 175.7"/><polygon class="cls-11" points="119.15 165.38 119.72 165 112.21 161.71 111.63 162.09 119.15 165.38"/><path class="cls-2" d="M119.11,175.7l-7.51-3.3,0-10.31,7.52,3.29Zm-6.72-4,6,2.61,0-8.17-6-2.61,0,8.17"/></g><g class="cls-1"><polygon class="cls-11" points="118.35 191.93 118.93 191.55 112.97 188.94 112.39 189.31 118.35 191.93"/><polygon class="cls-12" points="112.39 189.31 112.97 188.94 113 180.76 112.42 181.14 112.39 189.31"/><polygon class="cls-13" points="112.42 181.14 112.39 189.31 118.35 191.93 118.38 183.75 112.42 181.14"/><polygon class="cls-14" points="118.35 191.93 118.93 191.55 118.95 183.38 118.38 183.75 118.35 191.93"/><polygon class="cls-15" points="118.38 183.75 118.95 183.38 113 180.76 112.42 181.14 118.38 183.75"/><polygon class="cls-12" points="119.11 193.33 119.69 192.96 119.72 182.64 119.15 183.01 119.11 193.33"/><polygon class="cls-11" points="119.15 183.01 119.72 182.64 112.21 179.34 111.63 179.72 119.15 183.01"/><path class="cls-2" d="M119.11,193.33,111.6,190l0-10.32,7.52,3.3Zm-6.72-4,6,2.61,0-8.17-6-2.61,0,8.17"/></g><g class="cls-1"><polygon class="cls-11" points="118.35 209.27 118.93 208.89 112.97 206.28 112.39 206.65 118.35 209.27"/><polygon class="cls-12" points="112.39 206.65 112.97 206.28 113 198.11 112.42 198.48 112.39 206.65"/><polygon class="cls-13" points="112.42 198.48 112.39 206.65 118.35 209.26 118.38 201.09 112.42 198.48"/><polygon class="cls-14" points="118.35 209.26 118.93 208.89 118.95 200.72 118.38 201.09 118.35 209.26"/><polygon class="cls-15" points="118.38 201.09 118.95 200.72 113 198.11 112.42 198.48 118.38 201.09"/><polygon class="cls-12" points="119.11 210.68 119.69 210.3 119.72 199.98 119.15 200.36 119.11 210.68"/><polygon class="cls-11" points="119.15 200.36 119.72 199.98 112.21 196.69 111.63 197.06 119.15 200.36"/><path class="cls-2" d="M119.11,210.67l-7.51-3.29,0-10.32,7.52,3.3Zm-6.72-4,6,2.62,0-8.18-6-2.61,0,8.17"/></g><g class="cls-1"><polygon class="cls-11" points="118.35 226.9 118.93 226.53 112.97 223.91 112.39 224.29 118.35 226.9"/><polygon class="cls-12" points="112.39 224.29 112.97 223.91 113 215.74 112.42 216.12 112.39 224.29"/><polygon class="cls-13" points="112.42 216.12 112.39 224.29 118.35 226.9 118.38 218.73 112.42 216.12"/><polygon class="cls-14" points="118.35 226.9 118.93 226.53 118.95 218.35 118.38 218.73 118.35 226.9"/><polygon class="cls-15" points="118.38 218.73 118.95 218.35 113 215.74 112.42 216.12 118.38 218.73"/><polygon class="cls-12" points="119.11 228.31 119.69 227.93 119.72 217.62 119.15 217.99 119.11 228.31"/><polygon class="cls-11" points="119.15 217.99 119.72 217.62 112.21 214.32 111.63 214.7 119.15 217.99"/><path class="cls-2" d="M119.11,228.31,111.6,225l0-10.32,7.52,3.29Zm-6.72-4,6,2.61,0-8.17-6-2.61,0,8.17"/></g><g class="cls-1"><polygon class="cls-11" points="118.35 244.54 118.93 244.16 112.97 241.55 112.39 241.93 118.35 244.54"/><polygon class="cls-12" points="112.39 241.93 112.97 241.55 113 233.38 112.42 233.75 112.39 241.93"/><polygon class="cls-13" points="112.42 233.75 112.39 241.93 118.35 244.54 118.38 236.37 112.42 233.75"/><polygon class="cls-14" points="118.35 244.54 118.93 244.16 118.95 235.99 118.38 236.37 118.35 244.54"/><polygon class="cls-15" points="118.38 236.37 118.95 235.99 113 233.38 112.42 233.75 118.38 236.37"/><polygon class="cls-12" points="119.11 245.95 119.69 245.57 119.72 235.25 119.15 235.63 119.11 245.95"/><polygon class="cls-11" points="119.15 235.63 119.72 235.25 112.21 231.96 111.63 232.34 119.15 235.63"/><path class="cls-2" d="M119.11,246l-7.51-3.3,0-10.31,7.52,3.29Zm-6.72-4,6,2.62,0-8.17-6-2.62,0,8.17"/></g><g class="cls-1"><polygon class="cls-11" points="118.35 261.88 118.93 261.5 112.97 258.89 112.39 259.27 118.35 261.88"/><polygon class="cls-12" points="112.39 259.27 112.97 258.89 113 250.72 112.42 251.1 112.39 259.27"/><polygon class="cls-13" points="112.42 251.1 112.39 259.27 118.35 261.88 118.38 253.71 112.42 251.1"/><polygon class="cls-14" points="118.35 261.88 118.93 261.5 118.95 253.33 118.38 253.71 118.35 261.88"/><polygon class="cls-15" points="118.38 253.71 118.95 253.33 113 250.72 112.42 251.1 118.38 253.71"/><polygon class="cls-12" points="119.11 263.29 119.69 262.91 119.72 252.59 119.15 252.97 119.11 263.29"/><polygon class="cls-11" points="119.15 252.97 119.72 252.59 112.21 249.3 111.63 249.68 119.15 252.97"/><path class="cls-2" d="M119.11,263.29,111.6,260l0-10.31,7.52,3.29Zm-6.72-4,6,2.61,0-8.17-6-2.61,0,8.17"/></g><g class="cls-1"><polygon class="cls-11" points="118.35 279.51 118.93 279.14 112.97 276.52 112.39 276.9 118.35 279.51"/><polygon class="cls-12" points="112.39 276.9 112.97 276.52 113 268.35 112.42 268.73 112.39 276.9"/><polygon class="cls-13" points="112.42 268.73 112.39 276.9 118.35 279.51 118.38 271.34 112.42 268.73"/><polygon class="cls-14" points="118.35 279.51 118.93 279.14 118.95 270.96 118.38 271.34 118.35 279.51"/><polygon class="cls-15" points="118.38 271.34 118.95 270.96 113 268.35 112.42 268.73 118.38 271.34"/><polygon class="cls-12" points="119.11 280.92 119.69 280.55 119.72 270.23 119.15 270.61 119.11 280.92"/><polygon class="cls-11" points="119.15 270.61 119.72 270.23 112.21 266.94 111.63 267.31 119.15 270.61"/><path class="cls-2" d="M119.11,280.92l-7.51-3.29,0-10.32,7.52,3.3Zm-6.72-4,6,2.61,0-8.17-6-2.61,0,8.17"/></g><g class="cls-1"><polygon class="cls-11" points="118.35 297.15 118.93 296.77 112.97 294.16 112.39 294.54 118.35 297.15"/><polygon class="cls-12" points="112.39 294.54 112.97 294.16 113 285.99 112.42 286.37 112.39 294.54"/><polygon class="cls-13" points="112.42 286.37 112.39 294.54 118.35 297.15 118.38 288.98 112.42 286.37"/><polygon class="cls-14" points="118.35 297.15 118.93 296.77 118.95 288.6 118.38 288.98 118.35 297.15"/><polygon class="cls-15" points="118.38 288.98 118.95 288.6 113 285.99 112.42 286.37 118.38 288.98"/><polygon class="cls-12" points="119.11 298.56 119.69 298.18 119.72 287.86 119.15 288.24 119.11 298.56"/><polygon class="cls-11" points="119.15 288.24 119.72 287.86 112.21 284.57 111.63 284.95 119.15 288.24"/><path class="cls-2" d="M119.11,298.56l-7.51-3.29,0-10.32,7.52,3.29Zm-6.72-4,6,2.61,0-8.17-6-2.61,0,8.17"/></g><g class="cls-1"><polygon class="cls-11" points="135.58 164.42 136.16 164.04 130.21 161.43 129.63 161.81 135.58 164.42"/><polygon class="cls-12" points="129.63 161.81 130.21 161.43 130.23 153.26 129.65 153.64 129.63 161.81"/><polygon class="cls-13" points="129.65 153.64 129.63 161.81 135.58 164.42 135.61 156.25 129.65 153.64"/><polygon class="cls-14" points="135.58 164.42 136.16 164.04 136.19 155.87 135.61 156.25 135.58 164.42"/><polygon class="cls-15" points="135.61 156.25 136.19 155.87 130.23 153.26 129.65 153.64 135.61 156.25"/><polygon class="cls-12" points="136.35 165.83 136.93 165.45 136.96 155.13 136.38 155.51 136.35 165.83"/><polygon class="cls-11" points="136.38 155.51 136.96 155.13 129.44 151.84 128.87 152.22 136.38 155.51"/><path class="cls-2" d="M136.35,165.83l-7.52-3.29,0-10.32,7.52,3.29Zm-6.72-4,6,2.61,0-8.17-6-2.61,0,8.17"/></g><g class="cls-1"><polygon class="cls-11" points="135.58 182.06 136.16 181.68 130.21 179.07 129.63 179.44 135.58 182.06"/><polygon class="cls-12" points="129.63 179.44 130.21 179.07 130.23 170.9 129.65 171.27 129.63 179.44"/><polygon class="cls-13" points="129.65 171.27 129.63 179.44 135.58 182.06 135.61 173.88 129.65 171.27"/><polygon class="cls-14" points="135.58 182.06 136.16 181.68 136.19 173.51 135.61 173.88 135.58 182.06"/><polygon class="cls-15" points="135.61 173.88 136.19 173.51 130.23 170.9 129.65 171.27 135.61 173.88"/><polygon class="cls-12" points="136.35 183.47 136.93 183.09 136.96 172.77 136.38 173.15 136.35 183.47"/><polygon class="cls-11" points="136.38 173.15 136.96 172.77 129.44 169.48 128.87 169.85 136.38 173.15"/><path class="cls-2" d="M136.35,183.47l-7.52-3.3,0-10.32,7.52,3.3Zm-6.72-4,6,2.62,0-8.18-6-2.61,0,8.17"/></g><g class="cls-1"><polygon class="cls-11" points="135.58 199.69 136.16 199.31 130.21 196.7 129.63 197.08 135.58 199.69"/><polygon class="cls-12" points="129.63 197.08 130.21 196.7 130.23 188.53 129.65 188.91 129.63 197.08"/><polygon class="cls-13" points="129.65 188.91 129.63 197.08 135.58 199.69 135.61 191.52 129.65 188.91"/><polygon class="cls-14" points="135.58 199.69 136.16 199.31 136.19 191.14 135.61 191.52 135.58 199.69"/><polygon class="cls-15" points="135.61 191.52 136.19 191.14 130.23 188.53 129.65 188.91 135.61 191.52"/><polygon class="cls-12" points="136.35 201.1 136.93 200.72 136.96 190.41 136.38 190.78 136.35 201.1"/><polygon class="cls-11" points="136.38 190.78 136.96 190.41 129.44 187.11 128.87 187.49 136.38 190.78"/><path class="cls-2" d="M136.35,201.1l-7.52-3.29,0-10.32,7.52,3.29Zm-6.72-4,6,2.61,0-8.17-6-2.61,0,8.17"/></g><g class="cls-1"><polygon class="cls-11" points="135.58 217.03 136.16 216.66 130.21 214.04 129.63 214.42 135.58 217.03"/><polygon class="cls-12" points="129.63 214.42 130.21 214.04 130.23 205.87 129.65 206.25 129.63 214.42"/><polygon class="cls-13" points="129.65 206.25 129.63 214.42 135.58 217.03 135.61 208.86 129.65 206.25"/><polygon class="cls-14" points="135.58 217.03 136.16 216.66 136.19 208.49 135.61 208.86 135.58 217.03"/><polygon class="cls-15" points="135.61 208.86 136.19 208.49 130.23 205.87 129.65 206.25 135.61 208.86"/><polygon class="cls-12" points="136.35 218.44 136.93 218.06 136.96 207.75 136.38 208.13 136.35 218.44"/><polygon class="cls-11" points="136.38 208.13 136.96 207.75 129.44 204.45 128.87 204.83 136.38 208.13"/><path class="cls-2" d="M136.35,218.44l-7.52-3.29,0-10.32,7.52,3.3Zm-6.72-4,6,2.61,0-8.17-6-2.61,0,8.17"/></g><g class="cls-1"><polygon class="cls-11" points="135.58 234.67 136.16 234.29 130.21 231.68 129.63 232.06 135.58 234.67"/><polygon class="cls-12" points="129.63 232.06 130.21 231.68 130.23 223.51 129.65 223.89 129.63 232.06"/><polygon class="cls-13" points="129.65 223.89 129.63 232.06 135.58 234.67 135.61 226.5 129.65 223.89"/><polygon class="cls-14" points="135.58 234.67 136.16 234.29 136.19 226.12 135.61 226.5 135.58 234.67"/><polygon class="cls-15" points="135.61 226.5 136.19 226.12 130.23 223.51 129.65 223.89 135.61 226.5"/><polygon class="cls-12" points="136.35 236.08 136.93 235.7 136.96 225.38 136.38 225.76 136.35 236.08"/><polygon class="cls-11" points="136.38 225.76 136.96 225.38 129.44 222.09 128.87 222.47 136.38 225.76"/><path class="cls-2" d="M136.35,236.08l-7.52-3.29,0-10.32,7.52,3.29Zm-6.72-4,6,2.61,0-8.17-6-2.61,0,8.17"/></g><g class="cls-1"><polygon class="cls-11" points="135.58 252.31 136.16 251.93 130.21 249.31 129.63 249.69 135.58 252.31"/><polygon class="cls-12" points="129.63 249.69 130.21 249.31 130.23 241.15 129.65 241.52 129.63 249.69"/><polygon class="cls-13" points="129.65 241.52 129.63 249.69 135.58 252.3 135.61 244.13 129.65 241.52"/><polygon class="cls-14" points="135.58 252.3 136.16 251.93 136.19 243.75 135.61 244.13 135.58 252.3"/><polygon class="cls-15" points="135.61 244.13 136.19 243.75 130.23 241.15 129.65 241.52 135.61 244.13"/><polygon class="cls-12" points="136.35 253.71 136.93 253.34 136.96 243.02 136.38 243.4 136.35 253.71"/><polygon class="cls-11" points="136.38 243.4 136.96 243.02 129.44 239.73 128.87 240.1 136.38 243.4"/><path class="cls-2" d="M136.35,253.71l-7.52-3.29,0-10.32,7.52,3.3Zm-6.72-4,6,2.62,0-8.18-6-2.61,0,8.17"/></g><g class="cls-1"><polygon class="cls-11" points="135.58 269.64 136.16 269.27 130.21 266.66 129.63 267.04 135.58 269.64"/><polygon class="cls-12" points="129.63 267.04 130.21 266.66 130.23 258.49 129.65 258.86 129.63 267.04"/><polygon class="cls-13" points="129.65 258.86 129.63 267.04 135.58 269.64 135.61 261.48 129.65 258.86"/><polygon class="cls-14" points="135.58 269.64 136.16 269.27 136.19 261.1 135.61 261.48 135.58 269.64"/><polygon class="cls-15" points="135.61 261.48 136.19 261.1 130.23 258.49 129.65 258.86 135.61 261.48"/><polygon class="cls-12" points="136.35 271.06 136.93 270.68 136.96 260.36 136.38 260.74 136.35 271.06"/><polygon class="cls-11" points="136.38 260.74 136.96 260.36 129.44 257.07 128.87 257.44 136.38 260.74"/><path class="cls-2" d="M136.35,271.06l-7.52-3.3,0-10.32,7.52,3.3Zm-6.72-4,6,2.61,0-8.17-6-2.61,0,8.17"/></g><g class="cls-1"><polygon class="cls-11" points="135.58 287.28 136.16 286.9 130.21 284.29 129.63 284.67 135.58 287.28"/><polygon class="cls-12" points="129.63 284.67 130.21 284.29 130.23 276.12 129.65 276.5 129.63 284.67"/><polygon class="cls-13" points="129.65 276.5 129.63 284.67 135.58 287.28 135.61 279.11 129.65 276.5"/><polygon class="cls-14" points="135.58 287.28 136.16 286.9 136.19 278.73 135.61 279.11 135.58 287.28"/><polygon class="cls-15" points="135.61 279.11 136.19 278.73 130.23 276.12 129.65 276.5 135.61 279.11"/><polygon class="cls-12" points="136.35 288.69 136.93 288.31 136.96 278 136.38 278.37 136.35 288.69"/><polygon class="cls-11" points="136.38 278.37 136.96 278 129.44 274.7 128.87 275.08 136.38 278.37"/><path class="cls-2" d="M136.35,288.69l-7.52-3.29,0-10.32,7.52,3.29Zm-6.72-4,6,2.61,0-8.17-6-2.61,0,8.17"/></g><g class="cls-1"><polygon class="cls-11" points="135.58 304.92 136.16 304.54 130.21 301.93 129.63 302.31 135.58 304.92"/><polygon class="cls-12" points="129.63 302.31 130.21 301.93 130.23 293.76 129.65 294.13 129.63 302.31"/><polygon class="cls-13" points="129.65 294.13 129.63 302.31 135.58 304.92 135.61 296.75 129.65 294.13"/><polygon class="cls-14" points="135.58 304.92 136.16 304.54 136.19 296.37 135.61 296.75 135.58 304.92"/><polygon class="cls-15" points="135.61 296.75 136.19 296.37 130.23 293.76 129.65 294.13 135.61 296.75"/><polygon class="cls-12" points="136.35 306.33 136.93 305.95 136.96 295.63 136.38 296.01 136.35 306.33"/><polygon class="cls-11" points="136.38 296.01 136.96 295.63 129.44 292.34 128.87 292.72 136.38 296.01"/><path class="cls-2" d="M136.35,306.33l-7.52-3.3,0-10.31,7.52,3.29Zm-6.72-4,6,2.61,0-8.17-6-2.61,0,8.17"/></g><g class="cls-1"><polygon class="cls-11" points="152.82 172.19 153.4 171.81 147.44 169.2 146.86 169.58 152.82 172.19"/><polygon class="cls-12" points="146.86 169.58 147.44 169.2 147.47 161.03 146.89 161.41 146.86 169.58"/><polygon class="cls-13" points="146.89 161.41 146.86 169.58 152.82 172.19 152.84 164.02 146.89 161.41"/><polygon class="cls-14" points="152.82 172.19 153.4 171.81 153.42 163.64 152.84 164.02 152.82 172.19"/><polygon class="cls-15" points="152.84 164.02 153.42 163.64 147.47 161.03 146.89 161.41 152.84 164.02"/><polygon class="cls-12" points="153.58 173.6 154.16 173.22 154.19 162.9 153.62 163.28 153.58 173.6"/><polygon class="cls-11" points="153.62 163.28 154.19 162.9 146.68 159.61 146.1 159.99 153.62 163.28"/><path class="cls-2" d="M153.58,173.6l-7.51-3.3,0-10.31,7.51,3.29Zm-6.72-4,6,2.61,0-8.17-6-2.62,0,8.18"/></g><g class="cls-1"><polygon class="cls-11" points="152.82 189.82 153.4 189.45 147.44 186.84 146.86 187.21 152.82 189.82"/><polygon class="cls-12" points="146.86 187.21 147.44 186.84 147.47 178.66 146.89 179.04 146.86 187.21"/><polygon class="cls-13" points="146.89 179.04 146.86 187.21 152.82 189.82 152.84 181.65 146.89 179.04"/><polygon class="cls-14" points="152.82 189.82 153.4 189.45 153.42 181.28 152.84 181.65 152.82 189.82"/><polygon class="cls-15" points="152.84 181.65 153.42 181.28 147.47 178.66 146.89 179.04 152.84 181.65"/><polygon class="cls-12" points="153.58 191.23 154.16 190.86 154.19 180.54 153.62 180.92 153.58 191.23"/><polygon class="cls-11" points="153.62 180.92 154.19 180.54 146.68 177.24 146.1 177.62 153.62 180.92"/><path class="cls-2" d="M153.58,191.23l-7.51-3.29,0-10.32,7.51,3.3Zm-6.72-4,6,2.61,0-8.17-6-2.61,0,8.17"/></g><g class="cls-1"><polygon class="cls-11" points="152.82 207.46 153.4 207.08 147.44 204.47 146.86 204.85 152.82 207.46"/><polygon class="cls-12" points="146.86 204.85 147.44 204.47 147.47 196.3 146.89 196.68 146.86 204.85"/><polygon class="cls-13" points="146.89 196.68 146.86 204.85 152.82 207.46 152.84 199.29 146.89 196.68"/><polygon class="cls-14" points="152.82 207.46 153.4 207.08 153.42 198.91 152.84 199.29 152.82 207.46"/><polygon class="cls-15" points="152.84 199.29 153.42 198.91 147.47 196.3 146.89 196.68 152.84 199.29"/><polygon class="cls-12" points="153.58 208.87 154.16 208.49 154.19 198.17 153.62 198.55 153.58 208.87"/><polygon class="cls-11" points="153.62 198.55 154.19 198.17 146.68 194.88 146.1 195.26 153.62 198.55"/><path class="cls-2" d="M153.58,208.87l-7.51-3.29,0-10.32,7.51,3.29Zm-6.72-4,6,2.61,0-8.17-6-2.61,0,8.17"/></g><g class="cls-1"><polygon class="cls-11" points="152.82 224.8 153.4 224.42 147.44 221.81 146.86 222.19 152.82 224.8"/><polygon class="cls-12" points="146.86 222.19 147.44 221.81 147.47 213.64 146.89 214.02 146.86 222.19"/><polygon class="cls-13" points="146.89 214.02 146.86 222.19 152.82 224.8 152.84 216.63 146.89 214.02"/><polygon class="cls-14" points="152.82 224.8 153.4 224.42 153.42 216.25 152.84 216.63 152.82 224.8"/><polygon class="cls-15" points="152.84 216.63 153.42 216.25 147.47 213.64 146.89 214.02 152.84 216.63"/><polygon class="cls-12" points="153.58 226.21 154.16 225.83 154.19 215.52 153.62 215.89 153.58 226.21"/><polygon class="cls-11" points="153.62 215.89 154.19 215.52 146.68 212.22 146.1 212.6 153.62 215.89"/><path class="cls-2" d="M153.58,226.21l-7.51-3.29,0-10.32,7.51,3.29Zm-6.72-4,6,2.61,0-8.17-6-2.61,0,8.17"/></g><g class="cls-1"><polygon class="cls-11" points="152.82 242.44 153.4 242.06 147.44 239.45 146.86 239.82 152.82 242.44"/><polygon class="cls-12" points="146.86 239.82 147.44 239.45 147.47 231.28 146.89 231.65 146.86 239.82"/><polygon class="cls-13" points="146.89 231.65 146.86 239.82 152.82 242.44 152.84 234.26 146.89 231.65"/><polygon class="cls-14" points="152.82 242.44 153.4 242.06 153.42 233.89 152.84 234.26 152.82 242.44"/><polygon class="cls-15" points="152.84 234.26 153.42 233.89 147.47 231.28 146.89 231.65 152.84 234.26"/><polygon class="cls-12" points="153.58 243.85 154.16 243.47 154.19 233.15 153.62 233.53 153.58 243.85"/><polygon class="cls-11" points="153.62 233.53 154.19 233.15 146.68 229.86 146.1 230.23 153.62 233.53"/><path class="cls-2" d="M153.58,243.85l-7.51-3.3,0-10.32,7.51,3.3Zm-6.72-4,6,2.61,0-8.17-6-2.62,0,8.18"/></g><g class="cls-1"><polygon class="cls-11" points="152.82 260.07 153.4 259.7 147.44 257.08 146.86 257.46 152.82 260.07"/><polygon class="cls-12" points="146.86 257.46 147.44 257.08 147.47 248.91 146.89 249.29 146.86 257.46"/><polygon class="cls-13" points="146.89 249.29 146.86 257.46 152.82 260.07 152.84 251.9 146.89 249.29"/><polygon class="cls-14" points="152.82 260.07 153.4 259.7 153.42 251.52 152.84 251.9 152.82 260.07"/><polygon class="cls-15" points="152.84 251.9 153.42 251.52 147.47 248.91 146.89 249.29 152.84 251.9"/><polygon class="cls-12" points="153.58 261.48 154.16 261.1 154.19 250.79 153.62 251.16 153.58 261.48"/><polygon class="cls-11" points="153.62 251.16 154.19 250.79 146.68 247.49 146.1 247.87 153.62 251.16"/><path class="cls-2" d="M153.58,261.48l-7.51-3.29,0-10.32,7.51,3.29Zm-6.72-4,6,2.61,0-8.17-6-2.61,0,8.17"/></g><g class="cls-1"><polygon class="cls-11" points="152.82 277.41 153.4 277.04 147.44 274.43 146.86 274.8 152.82 277.41"/><polygon class="cls-12" points="146.86 274.8 147.44 274.43 147.47 266.25 146.89 266.63 146.86 274.8"/><polygon class="cls-13" points="146.89 266.63 146.86 274.8 152.82 277.41 152.84 269.24 146.89 266.63"/><polygon class="cls-14" points="152.82 277.41 153.4 277.04 153.42 268.87 152.84 269.24 152.82 277.41"/><polygon class="cls-15" points="152.84 269.24 153.42 268.87 147.47 266.25 146.89 266.63 152.84 269.24"/><polygon class="cls-12" points="153.58 278.82 154.16 278.45 154.19 268.13 153.62 268.51 153.58 278.82"/><polygon class="cls-11" points="153.62 268.51 154.19 268.13 146.68 264.83 146.1 265.21 153.62 268.51"/><path class="cls-2" d="M153.58,278.82l-7.51-3.29,0-10.32,7.51,3.3Zm-6.72-4,6,2.61,0-8.17-6-2.61,0,8.17"/></g><g class="cls-1"><polygon class="cls-11" points="152.82 295.05 153.4 294.67 147.44 292.06 146.86 292.44 152.82 295.05"/><polygon class="cls-12" points="146.86 292.44 147.44 292.06 147.47 283.89 146.89 284.26 146.86 292.44"/><polygon class="cls-13" points="146.89 284.26 146.86 292.44 152.82 295.05 152.84 286.88 146.89 284.26"/><polygon class="cls-14" points="152.82 295.05 153.4 294.67 153.42 286.5 152.84 286.88 152.82 295.05"/><polygon class="cls-15" points="152.84 286.88 153.42 286.5 147.47 283.89 146.89 284.26 152.84 286.88"/><polygon class="cls-12" points="153.58 296.46 154.16 296.08 154.19 285.76 153.62 286.14 153.58 296.46"/><polygon class="cls-11" points="153.62 286.14 154.19 285.76 146.68 282.47 146.1 282.85 153.62 286.14"/><path class="cls-2" d="M153.58,296.46l-7.51-3.3,0-10.31,7.51,3.29Zm-6.72-4,6,2.61,0-8.17-6-2.61,0,8.17"/></g><g class="cls-1"><polygon class="cls-11" points="152.82 312.68 153.4 312.31 147.44 309.7 146.86 310.07 152.82 312.68"/><polygon class="cls-12" points="146.86 310.07 147.44 309.7 147.47 301.53 146.89 301.9 146.86 310.07"/><polygon class="cls-13" points="146.89 301.9 146.86 310.07 152.82 312.68 152.84 304.51 146.89 301.9"/><polygon class="cls-14" points="152.82 312.68 153.4 312.31 153.42 304.14 152.84 304.51 152.82 312.68"/><polygon class="cls-15" points="152.84 304.51 153.42 304.14 147.47 301.53 146.89 301.9 152.84 304.51"/><polygon class="cls-12" points="153.58 314.09 154.16 313.72 154.19 303.4 153.62 303.78 153.58 314.09"/><polygon class="cls-11" points="153.62 303.78 154.19 303.4 146.68 300.11 146.1 300.48 153.62 303.78"/><path class="cls-2" d="M153.58,314.09l-7.51-3.29,0-10.32,7.51,3.3Zm-6.72-4,6,2.61,0-8.17-6-2.61,0,8.17"/></g><path class="cls-16" d="M188.26,163.82V334.17a37.12,37.12,0,0,1-10.54-1.38,36.35,36.35,0,0,1-7.71-3.15q.13-85.18.29-170.36a70.42,70.42,0,0,0,9.63,3.06A68.56,68.56,0,0,0,188.26,163.82Z"/><path class="cls-16" d="M233,150.65q0,85,0,170a17.36,17.36,0,0,0,2.15-3.29,17.91,17.91,0,0,0,1.69-5.35L237,142.17a18.16,18.16,0,0,1-2,5.61A18.44,18.44,0,0,1,233,150.65Z"/><path class="cls-11" d="M121.22,2.94c-6.69-3.86-17.68-4-24.53,0l-67.07,39c-6.86,4-6.62,10.35.06,14.21a18.89,18.89,0,0,0,1.8.91l138.82,61c16.65,7.3,40,6.38,54.74-2.17s16.19-22.07,3.53-31.7L122.79,4A15.81,15.81,0,0,0,121.22,2.94Z"/><path class="cls-17" d="M212.72,288.55a1.47,1.47,0,0,1,.4,1.11l0,11.7a4.13,4.13,0,0,1-1.9,3.27l-3.73,2.13a1.26,1.26,0,0,1-1.49,0Z"/><path class="cls-18" d="M204.18,290.94l.07,27.23,12.81-7.26L217,283.63Zm3.34,15.82a1.26,1.26,0,0,1-1.49,0,1.45,1.45,0,0,1-.42-1.13l0-11.7a4.1,4.1,0,0,1,1.9-3.27l3.73-2.13a1.26,1.26,0,0,1,1.51,0,1.47,1.47,0,0,1,.4,1.11v-1.28l0,13a4.13,4.13,0,0,1-1.9,3.27Zm5.4-3.35a1.51,1.51,0,0,0,.24-.77A1.51,1.51,0,0,1,212.92,303.41Z"/><path class="cls-19" d="M207.48,290.7l3.73-2.13a1.26,1.26,0,0,1,1.51,0,1.47,1.47,0,0,1,.4,1.11l0,11.7a4.13,4.13,0,0,1-1.9,3.27l-3.73,2.13a1.26,1.26,0,0,1-1.49,0,1.45,1.45,0,0,1-.42-1.13l0-11.7A4.1,4.1,0,0,1,207.48,290.7Z"/><path class="cls-20" d="M215.53,293.22c.48-.28.86-.06.87.49v1l-1.74,1v-1A1.89,1.89,0,0,1,215.53,293.22Z"/><path class="cls-18" d="M214.86,294.7a1.67,1.67,0,0,1,.77-1.31.57.57,0,0,1,.29-.09c.25,0,.28.29.28.41v.89l-1.34.77Z"/><path class="cls-21" d="M215.53,293.22a.83.83,0,0,1,.33-.12h0a.4.4,0,0,1,.27.06l-.46-.27h0l-.05,0,0,0h-.3l-.1,0-.12.06a1.29,1.29,0,0,0-.3.22l0,0v0l0,0-.07.09-.06.08-.05.07-.05.08h0l0,.07,0,.07,0,.08,0,.07,0,.08a.08.08,0,0,0,0,0h0a.06.06,0,0,1,0,0s0,.07,0,.1a.5.5,0,0,0,0,.12.86.86,0,0,0,0,.16v1l.46.27v-1a1.32,1.32,0,0,1,.07-.42h0a2,2,0,0,1,.45-.78l0,0A1.64,1.64,0,0,1,215.53,293.22Z"/><path class="cls-21" d="M214.68,302.26l-.46-.27v1a.59.59,0,0,0,.26.55l.46.28a.62.62,0,0,1-.26-.56Z"/><polygon class="cls-22" points="214.68 302.26 214.22 301.99 215.8 301.02 216.42 301.27 214.68 302.26"/><path class="cls-20" d="M216.42,301.27v1a1.89,1.89,0,0,1-.86,1.49c-.48.27-.88.05-.88-.5v-1Z"/><path class="cls-18" d="M215.17,303.68c-.26,0-.29-.3-.29-.42v-.89l1.34-.77v.67a1.69,1.69,0,0,1-.76,1.32A.6.6,0,0,1,215.17,303.68Z"/><path class="cls-23" d="M216,295a1.69,1.69,0,0,1,.12-.28h0a1.56,1.56,0,0,1,.17-.25h0a1.24,1.24,0,0,1,.22-.18.49.49,0,0,1,.22-.08h0a.34.34,0,0,1,.18,0h0l-.48-.29-.48-.3h-.26l-.07,0-.08,0a1.35,1.35,0,0,0-.19.16l0,0v0l0,0,0,.06,0,.06,0,.05,0,.05h0a.05.05,0,0,1,0,0,.14.14,0,0,0,0,.06l0,.05,0,.05a.08.08,0,0,1,0,.05v0h0v0l0,.06a.25.25,0,0,0,0,.08.53.53,0,0,0,0,.12l0,8.06a.4.4,0,0,0,.17.38l1,.59a.42.42,0,0,1-.17-.38l0-8.06a1,1,0,0,1,0-.29Z"/><path class="cls-24" d="M216.47,294.32c.31-.19.56,0,.57.34l0,8.06a1.29,1.29,0,0,1-.57,1c-.31.19-.56,0-.57-.34l0-8.06A1.29,1.29,0,0,1,216.47,294.32Z"/><g class="cls-25"><path class="cls-19" d="M212.72,288.55a1.47,1.47,0,0,1,.4,1.11l0,11.7a4.13,4.13,0,0,1-1.9,3.27l-3.73,2.13a1.26,1.26,0,0,1-1.49,0Z"/></g><path class="cls-3" d="M229.79,290.46a.19.19,0,0,1-.1,0l-4.77-2.8a.21.21,0,0,1-.07-.29.2.2,0,0,1,.28-.07l4.77,2.8a.22.22,0,0,1,.07.29A.22.22,0,0,1,229.79,290.46Z"/><path class="cls-3" d="M229.79,298.56a.19.19,0,0,1-.1,0l-4.77-2.8a.21.21,0,0,1-.07-.29.2.2,0,0,1,.28-.07l4.77,2.8a.21.21,0,0,1-.11.39Z"/><polyline class="cls-26" points="223.94 306.92 194.16 324.12 200.32 327.69 212.41 327.63 230.78 317.02 229.59 310.2"/><g class="cls-1"><polygon class="cls-3" points="223.93 303.29 223.94 306.92 229.79 310.32 229.78 306.69 223.93 303.29"/><polygon class="cls-27" points="230.77 313.39 230.78 317.02 230.82 310.09 230.81 306.46 230.77 313.39"/><polygon class="cls-3" points="194.15 320.48 194.16 324.12 200.32 327.69 200.31 324.06 194.15 320.48"/><polygon class="cls-4" points="212.31 324.05 212.41 327.63 230.87 316.97 230.77 313.39 212.31 324.05"/><polygon class="cls-28" points="200.31 324.06 200.32 327.69 212.32 327.68 212.31 324.05 200.31 324.06"/><polygon class="cls-5" points="194.15 320.48 200.31 324.06 212.31 324.05 230.77 313.39 230.81 306.46 224.65 302.88 223.93 303.29 229.78 306.69 229.72 313.14 211.85 323.45 200.74 323.45 194.89 320.06 194.15 320.48"/></g><path class="cls-3" d="M225,303.49a.2.2,0,0,1-.21-.2V282.14a.21.21,0,1,1,.41,0v21.15A.2.2,0,0,1,225,303.49Z"/><path class="cls-3" d="M230.33,306.89a.2.2,0,0,1-.21-.2V285.54a.21.21,0,0,1,.21-.21.2.2,0,0,1,.2.21v21.15A.2.2,0,0,1,230.33,306.89Z"/><path class="cls-3" d="M229.79,313.66a.2.2,0,0,1-.2-.21V292.3a.2.2,0,0,1,.2-.2.2.2,0,0,1,.21.2v21.15A.21.21,0,0,1,229.79,313.66Z"/><path class="cls-3" d="M212,323.93a.2.2,0,0,1-.2-.2V302.58a.2.2,0,0,1,.2-.21.21.21,0,0,1,.21.21v21.15A.2.2,0,0,1,212,323.93Z"/><path class="cls-3" d="M200.32,324.17a.2.2,0,0,1-.2-.21V302.81a.2.2,0,0,1,.2-.2.2.2,0,0,1,.21.2V324A.21.21,0,0,1,200.32,324.17Z"/><path class="cls-3" d="M194.89,320.72a.21.21,0,0,1-.2-.21V299.36a.2.2,0,0,1,.2-.21.21.21,0,0,1,.21.21v21.15A.22.22,0,0,1,194.89,320.72Z"/><g class="cls-1"><polygon class="cls-3" points="223.93 281.49 223.94 282.14 229.79 285.54 229.78 284.88 223.93 281.49"/><polygon class="cls-27" points="230.76 291.59 230.77 292.24 230.81 288.29 230.8 284.65 230.76 291.59"/><polygon class="cls-3" points="194.15 298.68 194.16 299.33 200.32 302.91 200.31 302.26 194.15 298.68"/><polygon class="cls-4" points="212.3 302.25 212.31 302.9 230.77 292.24 230.76 291.59 212.3 302.25"/><polygon class="cls-28" points="200.31 302.26 200.32 302.91 212.31 302.9 212.3 302.25 200.31 302.26"/><polygon class="cls-5" points="194.15 298.68 200.31 302.26 212.3 302.25 230.76 291.59 230.8 284.65 224.64 281.07 223.93 281.49 229.78 284.88 229.72 291.34 211.85 301.65 200.74 301.65 194.88 298.25 194.15 298.68"/></g><path class="cls-3" d="M212,308.71a.22.22,0,0,1-.18-.1.21.21,0,0,1,.08-.29l17.8-10.15a.21.21,0,1,1,.2.36l-17.8,10.16Z"/><path class="cls-3" d="M212,313.78a.2.2,0,0,1-.1-.38l17.8-10.15a.2.2,0,0,1,.28.07.21.21,0,0,1-.08.29l-17.8,10.15A.16.16,0,0,1,212,313.78Z"/><path class="cls-3" d="M212,318.86a.2.2,0,0,1-.18-.1.21.21,0,0,1,.08-.29l17.8-10.15a.21.21,0,0,1,.28.08.21.21,0,0,1-.08.29l-17.8,10.15Z"/><path class="cls-3" d="M212,308.71H200.31a.21.21,0,0,1-.21-.21.2.2,0,0,1,.21-.2H212a.2.2,0,0,1,.21.2A.21.21,0,0,1,212,308.71Z"/><path class="cls-3" d="M212,313.78H200.31a.2.2,0,0,1-.21-.2.21.21,0,0,1,.21-.21H212a.21.21,0,0,1,.21.21A.2.2,0,0,1,212,313.78Z"/><path class="cls-3" d="M212,318.86H200.31a.21.21,0,0,1-.21-.21.2.2,0,0,1,.21-.2H212a.2.2,0,0,1,.21.2A.21.21,0,0,1,212,318.86Z"/><path class="cls-3" d="M200.32,308.71h0l-5.44-.93a.2.2,0,0,1-.16-.24.2.2,0,0,1,.23-.17l5.44.93a.21.21,0,0,1,0,.41Z"/><path class="cls-3" d="M200.32,313.82h0l-5.44-.93a.2.2,0,0,1,.07-.4l5.44.92a.21.21,0,0,1,0,.41Z"/><path class="cls-3" d="M200.32,318.94h0l-5.44-.92a.21.21,0,0,1-.16-.24.2.2,0,0,1,.23-.17l5.44.93a.21.21,0,0,1,.17.24A.21.21,0,0,1,200.32,318.94Z"/><path class="cls-17" d="M212.72,252.14a1.43,1.43,0,0,1,.4,1.1l0,11.7a4.11,4.11,0,0,1-1.9,3.27l-3.73,2.14a1.27,1.27,0,0,1-1.49,0Z"/><path class="cls-18" d="M204.18,254.52l.07,27.23,12.81-7.26L217,247.21Zm3.34,15.83a1.27,1.27,0,0,1-1.49,0,1.44,1.44,0,0,1-.42-1.13l0-11.7a4.12,4.12,0,0,1,1.9-3.27l3.73-2.13a1.25,1.25,0,0,1,1.51,0,1.43,1.43,0,0,1,.4,1.1V252l0,13a4.11,4.11,0,0,1-1.9,3.27Zm5.4-3.35a1.57,1.57,0,0,0,.24-.78A1.57,1.57,0,0,1,212.92,267Z"/><path class="cls-19" d="M207.48,254.28l3.73-2.13a1.25,1.25,0,0,1,1.51,0,1.43,1.43,0,0,1,.4,1.1l0,11.7a4.11,4.11,0,0,1-1.9,3.27l-3.73,2.14a1.27,1.27,0,0,1-1.49,0,1.44,1.44,0,0,1-.42-1.13l0-11.7A4.12,4.12,0,0,1,207.48,254.28Z"/><path class="cls-20" d="M215.53,256.8c.48-.27.86-.05.87.5v1l-1.74,1v-1A1.89,1.89,0,0,1,215.53,256.8Z"/><path class="cls-18" d="M214.86,258.29a1.67,1.67,0,0,1,.77-1.32.57.57,0,0,1,.29-.09c.25,0,.28.29.28.42v.88l-1.34.77Z"/><path class="cls-21" d="M215.53,256.8a.8.8,0,0,1,.33-.11h0a.47.47,0,0,1,.27.05l-.46-.27h0l-.05,0,0,0h-.3l-.1,0-.12.06a1.33,1.33,0,0,0-.3.23l0,0v0l0,.05a.27.27,0,0,0-.07.08l-.06.08a.35.35,0,0,0-.05.08l-.05.07h0l0,.07,0,.07,0,.08,0,.08,0,.08s0,0,0,0h0a0,0,0,0,1,0,0s0,.07,0,.1a.5.5,0,0,0,0,.12,1,1,0,0,0,0,.17v1l.46.27v-1a1.23,1.23,0,0,1,.07-.42h0a2.18,2.18,0,0,1,.45-.78h0A1.4,1.4,0,0,1,215.53,256.8Z"/><path class="cls-21" d="M214.68,265.84l-.46-.27v1a.62.62,0,0,0,.26.56l.46.27a.61.61,0,0,1-.26-.56Z"/><polygon class="cls-22" points="214.68 265.84 214.22 265.57 215.8 264.6 216.42 264.85 214.68 265.84"/><path class="cls-20" d="M216.42,264.85v1a1.88,1.88,0,0,1-.86,1.49c-.48.28-.88.05-.88-.5v-1Z"/><path class="cls-18" d="M215.17,267.26c-.26,0-.29-.29-.29-.42V266l1.34-.76v.66a1.69,1.69,0,0,1-.76,1.32A.6.6,0,0,1,215.17,267.26Z"/><path class="cls-23" d="M216,258.63a1.48,1.48,0,0,1,.12-.29h0a1.46,1.46,0,0,1,.17-.24v0a1.24,1.24,0,0,1,.22-.18.65.65,0,0,1,.22-.08h0a.34.34,0,0,1,.18,0h0l-.48-.29-.48-.29h-.26l-.07,0-.08,0a1.25,1.25,0,0,0-.19.15l0,0h0l0,0,0,.06a.1.1,0,0,0,0,0l0,.05,0,.05h0l0,.05s0,0,0,.05l0,0s0,0,0,.05a.14.14,0,0,1,0,.06v0h0v0a.64.64,0,0,0,0,.07.19.19,0,0,0,0,.08.45.45,0,0,0,0,.11l0,8.06a.4.4,0,0,0,.17.38l1,.59a.42.42,0,0,1-.17-.38l0-8.06a1,1,0,0,1,0-.29Z"/><path class="cls-24" d="M216.47,257.9c.31-.18.56,0,.57.34l0,8.06a1.29,1.29,0,0,1-.57,1c-.31.19-.56,0-.57-.34l0-8.06A1.31,1.31,0,0,1,216.47,257.9Z"/><g class="cls-25"><path class="cls-19" d="M212.72,252.14a1.43,1.43,0,0,1,.4,1.1l0,11.7a4.11,4.11,0,0,1-1.9,3.27l-3.73,2.14a1.27,1.27,0,0,1-1.49,0Z"/></g><path class="cls-3" d="M229.79,254a.19.19,0,0,1-.1,0l-4.77-2.8a.21.21,0,0,1-.07-.29.2.2,0,0,1,.28-.07l4.77,2.81a.21.21,0,0,1,.07.28A.2.2,0,0,1,229.79,254Z"/><path class="cls-3" d="M229.79,262.14a.19.19,0,0,1-.1,0l-4.77-2.8a.21.21,0,0,1,.21-.36l4.77,2.81a.21.21,0,0,1,.07.28A.2.2,0,0,1,229.79,262.14Z"/><polyline class="cls-26" points="223.94 270.5 194.16 287.7 200.32 291.28 212.41 291.21 230.78 280.6 229.59 273.78"/><g class="cls-1"><polygon class="cls-3" points="223.93 266.87 223.94 270.5 229.79 273.9 229.78 270.27 223.93 266.87"/><polygon class="cls-27" points="230.77 276.97 230.78 280.6 230.82 273.67 230.81 270.04 230.77 276.97"/><polygon class="cls-3" points="194.15 284.07 194.16 287.7 200.32 291.28 200.31 287.65 194.15 284.07"/><polygon class="cls-4" points="212.31 287.63 212.41 291.21 230.87 280.55 230.77 276.97 212.31 287.63"/><polygon class="cls-28" points="200.31 287.65 200.32 291.28 212.32 291.26 212.31 287.63 200.31 287.65"/><polygon class="cls-5" points="194.15 284.07 200.31 287.65 212.31 287.63 230.77 276.97 230.81 270.04 224.65 266.46 223.93 266.87 229.78 270.27 229.72 276.73 211.85 287.04 200.74 287.04 194.89 283.64 194.15 284.07"/></g><path class="cls-3" d="M225,267.08a.21.21,0,0,1-.21-.21V245.72a.2.2,0,0,1,.21-.2.2.2,0,0,1,.2.2v21.15A.21.21,0,0,1,225,267.08Z"/><path class="cls-3" d="M230.33,270.48a.21.21,0,0,1-.21-.21V249.12a.21.21,0,1,1,.41,0v21.15A.21.21,0,0,1,230.33,270.48Z"/><path class="cls-3" d="M229.79,277.24a.2.2,0,0,1-.2-.21V255.89a.2.2,0,0,1,.2-.21.21.21,0,0,1,.21.21V277A.21.21,0,0,1,229.79,277.24Z"/><path class="cls-3" d="M212,287.52a.21.21,0,0,1-.2-.21V266.16a.2.2,0,0,1,.2-.2.2.2,0,0,1,.21.2v21.15A.21.21,0,0,1,212,287.52Z"/><path class="cls-3" d="M200.32,287.75a.2.2,0,0,1-.2-.2V266.4a.2.2,0,0,1,.2-.21.21.21,0,0,1,.21.21v21.15A.2.2,0,0,1,200.32,287.75Z"/><path class="cls-3" d="M194.89,284.3a.2.2,0,0,1-.2-.21V262.94a.21.21,0,0,1,.2-.21.22.22,0,0,1,.21.21v21.15A.21.21,0,0,1,194.89,284.3Z"/><g class="cls-1"><polygon class="cls-3" points="223.93 245.07 223.94 245.72 229.79 249.12 229.78 248.47 223.93 245.07"/><polygon class="cls-27" points="230.76 255.17 230.77 255.82 230.81 251.87 230.8 248.24 230.76 255.17"/><polygon class="cls-3" points="194.15 262.26 194.16 262.92 200.32 266.5 200.31 265.84 194.15 262.26"/><polygon class="cls-4" points="212.3 265.83 212.31 266.48 230.77 255.82 230.76 255.17 212.3 265.83"/><polygon class="cls-28" points="200.31 265.84 200.32 266.5 212.31 266.48 212.3 265.83 200.31 265.84"/><polygon class="cls-5" points="194.15 262.26 200.31 265.84 212.3 265.83 230.76 255.17 230.8 248.24 224.64 244.66 223.93 245.07 229.78 248.47 229.72 254.92 211.85 265.24 200.74 265.24 194.88 261.84 194.15 262.26"/></g><path class="cls-3" d="M212,272.29a.2.2,0,0,1-.18-.1.21.21,0,0,1,.08-.29l17.8-10.15a.21.21,0,0,1,.28.08.21.21,0,0,1-.08.29l-17.8,10.15A.16.16,0,0,1,212,272.29Z"/><path class="cls-3" d="M212,277.37a.21.21,0,0,1-.18-.11.2.2,0,0,1,.08-.28l17.8-10.15a.21.21,0,1,1,.2.36l-17.8,10.15A.17.17,0,0,1,212,277.37Z"/><path class="cls-3" d="M212,282.44a.2.2,0,0,1-.1-.38l17.8-10.16a.21.21,0,0,1,.28.08.21.21,0,0,1-.08.29l-17.8,10.15A.16.16,0,0,1,212,282.44Z"/><path class="cls-3" d="M212,272.29H200.31a.2.2,0,0,1-.21-.2.21.21,0,0,1,.21-.21H212a.21.21,0,0,1,.21.21A.2.2,0,0,1,212,272.29Z"/><path class="cls-3" d="M212,277.37H200.31a.21.21,0,0,1,0-.42H212a.21.21,0,1,1,0,.42Z"/><path class="cls-3" d="M212,282.44H200.31a.2.2,0,0,1-.21-.2.21.21,0,0,1,.21-.21H212a.21.21,0,0,1,.21.21A.2.2,0,0,1,212,282.44Z"/><path class="cls-3" d="M200.32,272.29h0l-5.44-.93a.2.2,0,0,1-.16-.24.19.19,0,0,1,.23-.16l5.44.92a.21.21,0,0,1,0,.41Z"/><path class="cls-3" d="M200.32,277.4h0l-5.44-.93a.2.2,0,0,1,.07-.4l5.44.92a.22.22,0,0,1,.17.24A.21.21,0,0,1,200.32,277.4Z"/><path class="cls-3" d="M200.32,282.52h0l-5.44-.93a.2.2,0,0,1-.16-.24.2.2,0,0,1,.23-.17l5.44.93a.21.21,0,0,1,.17.24A.21.21,0,0,1,200.32,282.52Z"/><path class="cls-17" d="M212.72,215.72a1.44,1.44,0,0,1,.4,1.11l0,11.7a4.13,4.13,0,0,1-1.9,3.27l-3.73,2.13a1.27,1.27,0,0,1-1.49,0Z"/><path class="cls-18" d="M204.18,218.11l.07,27.23,12.81-7.27L217,210.79Zm3.34,15.82a1.27,1.27,0,0,1-1.49,0,1.43,1.43,0,0,1-.42-1.12l0-11.7a4.1,4.1,0,0,1,1.9-3.27l3.73-2.14a1.25,1.25,0,0,1,1.51,0,1.44,1.44,0,0,1,.4,1.11v-1.28l0,13a4.13,4.13,0,0,1-1.9,3.27Zm5.4-3.35a1.57,1.57,0,0,0,.24-.78A1.57,1.57,0,0,1,212.92,230.58Z"/><path class="cls-19" d="M207.48,217.87l3.73-2.14a1.25,1.25,0,0,1,1.51,0,1.44,1.44,0,0,1,.4,1.11l0,11.7a4.13,4.13,0,0,1-1.9,3.27l-3.73,2.13a1.27,1.27,0,0,1-1.49,0,1.43,1.43,0,0,1-.42-1.12l0-11.7A4.1,4.1,0,0,1,207.48,217.87Z"/><path class="cls-20" d="M215.53,220.38c.48-.27.86,0,.87.5v1l-1.74,1v-1A1.91,1.91,0,0,1,215.53,220.38Z"/><path class="cls-18" d="M214.86,221.87a1.69,1.69,0,0,1,.77-1.32.57.57,0,0,1,.29-.09c.25,0,.28.29.28.42v.88l-1.34.77Z"/><path class="cls-21" d="M215.53,220.38a1,1,0,0,1,.33-.11h0a.47.47,0,0,1,.27,0l-.46-.27h0l-.05,0,0,0h-.22l-.08,0-.1,0-.12.06a1.33,1.33,0,0,0-.3.23l0,0h0l0,.05-.07.09-.06.07a.35.35,0,0,0-.05.08l-.05.07h0a.43.43,0,0,1,0,.07.3.3,0,0,1,0,.08l0,.07,0,.08,0,.08a.06.06,0,0,0,0,0h0a.08.08,0,0,1,0,0s0,.06,0,.09a.5.5,0,0,0,0,.12,1,1,0,0,0,0,.17v1l.46.27v-1a1.28,1.28,0,0,1,.07-.42h0a2.18,2.18,0,0,1,.45-.78h0A1.4,1.4,0,0,1,215.53,220.38Z"/><path class="cls-21" d="M214.68,229.42l-.46-.27v1a.6.6,0,0,0,.26.56l.46.27a.6.6,0,0,1-.26-.56Z"/><polygon class="cls-22" points="214.68 229.42 214.22 229.15 215.8 228.18 216.42 228.43 214.68 229.42"/><path class="cls-20" d="M216.42,228.43v1a1.88,1.88,0,0,1-.86,1.49c-.48.28-.88.05-.88-.5v-1Z"/><path class="cls-18" d="M215.17,230.84c-.26,0-.29-.29-.29-.42v-.88l1.34-.77v.66a1.67,1.67,0,0,1-.76,1.32A.6.6,0,0,1,215.17,230.84Z"/><path class="cls-23" d="M216,222.21a1.39,1.39,0,0,1,.12-.28h0a1.46,1.46,0,0,1,.17-.24h0a.92.92,0,0,1,.22-.18.4.4,0,0,1,.22-.08h0a.22.22,0,0,1,.18,0h0l-.48-.29-.48-.29h0l0,0h-.23l-.07,0-.08,0a1.25,1.25,0,0,0-.19.15l0,0h0l0,0,0,.06,0,0,0,.05,0,.05h0l0,0s0,0,0,.05l0,0a.08.08,0,0,1,0,.05.14.14,0,0,1,0,.06v0h0v0a.64.64,0,0,0,0,.07.22.22,0,0,0,0,.08.49.49,0,0,0,0,.12l0,8.06a.41.41,0,0,0,.17.38l1,.59a.45.45,0,0,1-.17-.38l0-8.07a.92.92,0,0,1,0-.28Z"/><path class="cls-24" d="M216.47,221.49c.31-.19.56,0,.57.34l0,8.06a1.27,1.27,0,0,1-.57,1c-.31.19-.56,0-.57-.33l0-8.07A1.27,1.27,0,0,1,216.47,221.49Z"/><g class="cls-25"><path class="cls-19" d="M212.72,215.72a1.44,1.44,0,0,1,.4,1.11l0,11.7a4.13,4.13,0,0,1-1.9,3.27l-3.73,2.13a1.27,1.27,0,0,1-1.49,0Z"/></g><path class="cls-3" d="M229.79,217.62a.19.19,0,0,1-.1,0l-4.77-2.8a.2.2,0,0,1-.07-.28.2.2,0,0,1,.28-.07l4.77,2.8a.21.21,0,0,1,.07.28A.2.2,0,0,1,229.79,217.62Z"/><path class="cls-3" d="M229.79,225.72l-.1,0-4.77-2.81a.2.2,0,0,1,.21-.35l4.77,2.8a.21.21,0,0,1,.07.28A.2.2,0,0,1,229.79,225.72Z"/><polyline class="cls-26" points="223.94 234.09 194.16 251.28 200.32 254.86 212.41 254.79 230.78 244.19 229.59 237.37"/><g class="cls-1"><polygon class="cls-3" points="223.93 230.45 223.94 234.09 229.79 237.48 229.78 233.85 223.93 230.45"/><polygon class="cls-27" points="230.77 240.55 230.78 244.19 230.82 237.25 230.81 233.62 230.77 240.55"/><polygon class="cls-3" points="194.15 247.65 194.16 251.28 200.32 254.86 200.31 251.23 194.15 247.65"/><polygon class="cls-4" points="212.31 251.21 212.41 254.79 230.87 244.13 230.77 240.55 212.31 251.21"/><polygon class="cls-28" points="200.31 251.23 200.32 254.86 212.32 254.84 212.31 251.21 200.31 251.23"/><polygon class="cls-5" points="194.15 247.65 200.31 251.23 212.31 251.21 230.77 240.55 230.81 233.62 224.65 230.04 223.93 230.45 229.78 233.85 229.72 240.31 211.85 250.62 200.74 250.62 194.89 247.22 194.15 247.65"/></g><path class="cls-3" d="M225,230.66a.21.21,0,0,1-.21-.21V209.3a.2.2,0,0,1,.21-.2.2.2,0,0,1,.2.2v21.15A.2.2,0,0,1,225,230.66Z"/><path class="cls-3" d="M230.33,234.06a.21.21,0,0,1-.21-.21V212.7a.2.2,0,0,1,.21-.2.2.2,0,0,1,.2.2v21.15A.2.2,0,0,1,230.33,234.06Z"/><path class="cls-3" d="M229.79,240.82a.2.2,0,0,1-.2-.2V219.47a.2.2,0,0,1,.2-.21.21.21,0,0,1,.21.21v21.15A.2.2,0,0,1,229.79,240.82Z"/><path class="cls-3" d="M212,251.1a.2.2,0,0,1-.2-.21V229.75a.2.2,0,0,1,.2-.21.21.21,0,0,1,.21.21v21.14A.21.21,0,0,1,212,251.1Z"/><path class="cls-3" d="M200.32,251.33a.2.2,0,0,1-.2-.2V230a.2.2,0,0,1,.2-.21.21.21,0,0,1,.21.21v21.15A.2.2,0,0,1,200.32,251.33Z"/><path class="cls-3" d="M194.89,247.88a.2.2,0,0,1-.2-.21V226.52a.2.2,0,0,1,.2-.2.21.21,0,0,1,.21.2v21.15A.21.21,0,0,1,194.89,247.88Z"/><g class="cls-1"><polygon class="cls-3" points="223.93 208.65 223.94 209.3 229.79 212.7 229.78 212.05 223.93 208.65"/><polygon class="cls-27" points="230.76 218.75 230.77 219.4 230.81 215.45 230.8 211.82 230.76 218.75"/><polygon class="cls-3" points="194.15 225.85 194.16 226.5 200.32 230.08 200.31 229.43 194.15 225.85"/><polygon class="cls-4" points="212.3 229.41 212.31 230.06 230.77 219.4 230.76 218.75 212.3 229.41"/><polygon class="cls-28" points="200.31 229.43 200.32 230.08 212.31 230.06 212.3 229.41 200.31 229.43"/><polygon class="cls-5" points="194.15 225.85 200.31 229.43 212.3 229.41 230.76 218.75 230.8 211.82 224.64 208.24 223.93 208.65 229.78 212.05 229.72 218.5 211.85 228.82 200.74 228.82 194.88 225.42 194.15 225.85"/></g><path class="cls-3" d="M212,235.87a.2.2,0,0,1-.1-.38l17.8-10.15a.2.2,0,0,1,.28.08.2.2,0,0,1-.08.28l-17.8,10.15A.16.16,0,0,1,212,235.87Z"/><path class="cls-3" d="M212,241a.21.21,0,0,1-.18-.11.2.2,0,0,1,.08-.28l17.8-10.15a.21.21,0,0,1,.2.36l-17.8,10.15A.17.17,0,0,1,212,241Z"/><path class="cls-3" d="M212,246a.21.21,0,0,1-.18-.11.2.2,0,0,1,.08-.28l17.8-10.15a.2.2,0,0,1,.28.08.2.2,0,0,1-.08.28L212.09,246A.17.17,0,0,1,212,246Z"/><path class="cls-3" d="M212,235.87H200.31a.2.2,0,0,1-.21-.2.21.21,0,0,1,.21-.21H212a.21.21,0,0,1,.21.21A.2.2,0,0,1,212,235.87Z"/><path class="cls-3" d="M212,241H200.31a.21.21,0,0,1-.21-.21.2.2,0,0,1,.21-.2H212a.2.2,0,0,1,.21.2A.21.21,0,0,1,212,241Z"/><path class="cls-3" d="M212,246H200.31a.21.21,0,0,1,0-.42H212a.21.21,0,0,1,0,.42Z"/><path class="cls-3" d="M200.32,235.87h0l-5.44-.92a.21.21,0,0,1-.16-.24.19.19,0,0,1,.23-.17l5.44.93a.2.2,0,0,1,.17.23A.21.21,0,0,1,200.32,235.87Z"/><path class="cls-3" d="M200.32,241h0l-5.44-.93a.21.21,0,0,1-.16-.24.2.2,0,0,1,.23-.17l5.44.93a.21.21,0,0,1,.17.24A.21.21,0,0,1,200.32,241Z"/><path class="cls-3" d="M200.32,246.1h0l-5.44-.93a.2.2,0,0,1-.16-.23c0-.12.12-.21.23-.17l5.44.92a.21.21,0,0,1,0,.41Z"/><path class="cls-17" d="M212.72,179.3a1.45,1.45,0,0,1,.4,1.11l0,11.7a4.13,4.13,0,0,1-1.9,3.27l-3.73,2.13a1.26,1.26,0,0,1-1.49,0Z"/><path class="cls-18" d="M204.18,181.69l.07,27.23,12.81-7.26L217,174.37Zm3.34,15.82a1.26,1.26,0,0,1-1.49,0,1.45,1.45,0,0,1-.42-1.13l0-11.7a4.1,4.1,0,0,1,1.9-3.27l3.73-2.13a1.26,1.26,0,0,1,1.51,0,1.45,1.45,0,0,1,.4,1.11v-1.28l0,13a4.13,4.13,0,0,1-1.9,3.27Zm5.4-3.35a1.51,1.51,0,0,0,.24-.77A1.51,1.51,0,0,1,212.92,194.16Z"/><path class="cls-19" d="M207.48,181.45l3.73-2.13a1.26,1.26,0,0,1,1.51,0,1.45,1.45,0,0,1,.4,1.11l0,11.7a4.13,4.13,0,0,1-1.9,3.27l-3.73,2.13a1.26,1.26,0,0,1-1.49,0,1.45,1.45,0,0,1-.42-1.13l0-11.7A4.1,4.1,0,0,1,207.48,181.45Z"/><path class="cls-20" d="M215.53,184c.48-.28.86-.06.87.49v1l-1.74,1v-1A1.87,1.87,0,0,1,215.53,184Z"/><path class="cls-18" d="M214.86,185.45a1.67,1.67,0,0,1,.77-1.31.59.59,0,0,1,.29-.1c.25,0,.28.3.28.42v.89l-1.34.76Z"/><path class="cls-21" d="M215.53,184a.83.83,0,0,1,.33-.12h0a.4.4,0,0,1,.27.06l-.46-.27h0l-.05,0h-.34l-.1,0-.12.07a1.05,1.05,0,0,0-.3.22l0,0v0l0,0-.07.09-.06.08-.05.07-.05.08h0a.43.43,0,0,0,0,.07.25.25,0,0,1,0,.07l0,.07,0,.08,0,.08a.08.08,0,0,0,0,0h0a.06.06,0,0,1,0,0s0,.06,0,.1a.5.5,0,0,0,0,.12.86.86,0,0,0,0,.16v1l.46.27v-1a1.28,1.28,0,0,1,.07-.42h0a2.06,2.06,0,0,1,.45-.77l0,0A1.35,1.35,0,0,1,215.53,184Z"/><path class="cls-21" d="M214.68,193l-.46-.27v1a.59.59,0,0,0,.26.55l.46.27a.59.59,0,0,1-.26-.55Z"/><polygon class="cls-22" points="214.68 193.01 214.22 192.74 215.8 191.77 216.42 192.01 214.68 193.01"/><path class="cls-20" d="M216.42,192v1a1.91,1.91,0,0,1-.86,1.5c-.48.27-.88.05-.88-.5v-1Z"/><path class="cls-18" d="M215.17,194.43c-.26,0-.29-.3-.29-.42v-.89l1.34-.77V193a1.71,1.71,0,0,1-.76,1.33A.6.6,0,0,1,215.17,194.43Z"/><path class="cls-23" d="M216,185.79a1.69,1.69,0,0,1,.12-.28h0a1.56,1.56,0,0,1,.17-.25h0a1.24,1.24,0,0,1,.22-.18.49.49,0,0,1,.22-.08h0a.27.27,0,0,1,.18,0h0l-.48-.29-.48-.3h0l0,0h-.23l-.07,0-.08,0a1.25,1.25,0,0,0-.19.15l0,0h0l0,0,0,.06,0,.05,0,.05,0,0h0l0,0,0,0,0,.05a.14.14,0,0,1,0,.06s0,0,0,0v0h0v0a.64.64,0,0,1,0,.07.25.25,0,0,0,0,.08.49.49,0,0,0,0,.12l0,8.06a.4.4,0,0,0,.17.38l1,.59a.43.43,0,0,1-.17-.38l0-8.06a1,1,0,0,1,0-.29Z"/><path class="cls-24" d="M216.47,185.07c.31-.19.56,0,.57.34l0,8.06a1.29,1.29,0,0,1-.57,1c-.31.19-.56,0-.57-.34l0-8.06A1.29,1.29,0,0,1,216.47,185.07Z"/><g class="cls-25"><path class="cls-19" d="M212.72,179.3a1.45,1.45,0,0,1,.4,1.11l0,11.7a4.13,4.13,0,0,1-1.9,3.27l-3.73,2.13a1.26,1.26,0,0,1-1.49,0Z"/></g><path class="cls-3" d="M229.79,181.21a.19.19,0,0,1-.1,0l-4.77-2.8a.21.21,0,0,1-.07-.29.2.2,0,0,1,.28-.07l4.77,2.81a.21.21,0,0,1,.07.28A.22.22,0,0,1,229.79,181.21Z"/><path class="cls-3" d="M229.79,189.31a.19.19,0,0,1-.1,0l-4.77-2.81a.2.2,0,1,1,.21-.35l4.77,2.8a.21.21,0,0,1-.11.39Z"/><polyline class="cls-26" points="223.94 197.67 194.16 214.86 200.32 218.44 212.41 218.38 230.78 207.77 229.59 200.95"/><g class="cls-1"><polygon class="cls-3" points="223.93 194.04 223.94 197.67 229.79 201.07 229.78 197.44 223.93 194.04"/><polygon class="cls-27" points="230.77 204.14 230.78 207.77 230.82 200.84 230.81 197.21 230.77 204.14"/><polygon class="cls-3" points="194.15 211.23 194.16 214.86 200.32 218.44 200.31 214.81 194.15 211.23"/><polygon class="cls-4" points="212.31 214.79 212.41 218.38 230.87 207.72 230.77 204.14 212.31 214.79"/><polygon class="cls-28" points="200.31 214.81 200.32 218.44 212.32 218.43 212.31 214.79 200.31 214.81"/><polygon class="cls-5" points="194.15 211.23 200.31 214.81 212.31 214.79 230.77 204.14 230.81 197.21 224.65 193.63 223.93 194.04 229.78 197.44 229.72 203.89 211.85 214.21 200.74 214.2 194.89 210.8 194.15 211.23"/></g><path class="cls-3" d="M225,194.24a.2.2,0,0,1-.21-.2V172.89a.21.21,0,0,1,.21-.21.2.2,0,0,1,.2.21V194A.2.2,0,0,1,225,194.24Z"/><path class="cls-3" d="M230.33,197.64a.21.21,0,0,1-.21-.21V176.29a.21.21,0,0,1,.21-.21.2.2,0,0,1,.2.21v21.14A.2.2,0,0,1,230.33,197.64Z"/><path class="cls-3" d="M229.79,204.41a.21.21,0,0,1-.2-.21V183.05a.21.21,0,1,1,.41,0V204.2A.21.21,0,0,1,229.79,204.41Z"/><path class="cls-3" d="M212,214.68a.2.2,0,0,1-.2-.2V193.33a.2.2,0,0,1,.2-.21.21.21,0,0,1,.21.21v21.15A.2.2,0,0,1,212,214.68Z"/><path class="cls-3" d="M200.32,214.92a.21.21,0,0,1-.2-.21V193.56a.2.2,0,0,1,.2-.2.2.2,0,0,1,.21.2v21.15A.21.21,0,0,1,200.32,214.92Z"/><path class="cls-3" d="M194.89,211.46a.2.2,0,0,1-.2-.2V190.1a.2.2,0,0,1,.2-.2.21.21,0,0,1,.21.2v21.16A.21.21,0,0,1,194.89,211.46Z"/><g class="cls-1"><polygon class="cls-3" points="223.93 172.23 223.94 172.89 229.79 176.28 229.78 175.63 223.93 172.23"/><polygon class="cls-27" points="230.76 182.33 230.77 182.99 230.81 179.03 230.8 175.4 230.76 182.33"/><polygon class="cls-3" points="194.15 189.43 194.16 190.08 200.32 193.66 200.31 193.01 194.15 189.43"/><polygon class="cls-4" points="212.3 192.99 212.31 193.65 230.77 182.99 230.76 182.33 212.3 192.99"/><polygon class="cls-28" points="200.31 193.01 200.32 193.66 212.31 193.65 212.3 192.99 200.31 193.01"/><polygon class="cls-5" points="194.15 189.43 200.31 193.01 212.3 192.99 230.76 182.33 230.8 175.4 224.64 171.82 223.93 172.23 229.78 175.63 229.72 182.09 211.85 192.4 200.74 192.4 194.88 189 194.15 189.43"/></g><path class="cls-3" d="M212,199.46a.21.21,0,0,1-.18-.11.2.2,0,0,1,.08-.28l17.8-10.15a.21.21,0,1,1,.2.36l-17.8,10.15A.17.17,0,0,1,212,199.46Z"/><path class="cls-3" d="M212,204.53a.2.2,0,0,1-.18-.1.21.21,0,0,1,.08-.29L229.69,194a.21.21,0,0,1,.28.08.2.2,0,0,1-.08.28l-17.8,10.15A.17.17,0,0,1,212,204.53Z"/><path class="cls-3" d="M212,209.61a.21.21,0,0,1-.18-.11.2.2,0,0,1,.08-.28l17.8-10.15a.21.21,0,1,1,.2.36l-17.8,10.15A.17.17,0,0,1,212,209.61Z"/><path class="cls-3" d="M212,199.46H200.31a.21.21,0,0,1-.21-.21.21.21,0,0,1,.21-.21H212a.21.21,0,0,1,.21.21A.21.21,0,0,1,212,199.46Z"/><path class="cls-3" d="M212,204.53H200.31a.21.21,0,0,1-.21-.21.2.2,0,0,1,.21-.2H212a.2.2,0,0,1,.21.2A.21.21,0,0,1,212,204.53Z"/><path class="cls-3" d="M212,209.61H200.31a.21.21,0,0,1-.21-.21.2.2,0,0,1,.21-.2H212a.2.2,0,0,1,.21.2A.21.21,0,0,1,212,209.61Z"/><path class="cls-3" d="M200.32,199.46h0l-5.44-.92a.21.21,0,0,1-.16-.24.2.2,0,0,1,.23-.17l5.44.93a.21.21,0,0,1,.17.24A.21.21,0,0,1,200.32,199.46Z"/><path class="cls-3" d="M200.32,204.57h0l-5.44-.93a.2.2,0,0,1-.16-.24.2.2,0,0,1,.23-.17l5.44.93a.21.21,0,0,1,0,.41Z"/><path class="cls-3" d="M200.32,209.68h0l-5.44-.92a.21.21,0,0,1-.16-.24.19.19,0,0,1,.23-.17l5.44.93a.2.2,0,0,1,.17.23A.21.21,0,0,1,200.32,209.68Z"/><g class="cls-1"><polygon class="cls-3" points="223.9 160.46 223.9 164.09 229.75 167.49 229.74 163.86 223.9 160.46"/><polygon class="cls-27" points="230.73 170.56 230.74 171.27 230.78 167.26 230.77 163.63 230.73 170.56"/><polygon class="cls-3" points="194.11 177.65 194.12 178.37 200.28 181.95 200.27 181.24 194.11 177.65"/><polygon class="cls-4" points="212.27 181.22 212.37 181.88 230.83 171.22 230.73 170.56 212.27 181.22"/><polygon class="cls-28" points="200.27 181.24 200.28 181.95 212.28 181.93 212.27 181.22 200.27 181.24"/><polygon class="cls-5" points="194.11 177.65 200.27 181.24 212.27 181.22 230.73 170.56 230.77 163.63 224.6 160.05 223.9 160.46 229.74 163.86 229.68 170.31 211.81 180.63 200.7 180.63 194.85 177.23 194.11 177.65"/></g><line class="cls-26" x1="229.55" y1="167.37" x2="223.66" y2="164.09"/><polygon class="cls-5" points="230.77 163.63 230.73 170.56 212.27 181.22 200.27 181.24 194.11 177.65 224.6 160.05 230.77 163.63"/><polygon class="cls-29" points="77.78 344.01 109.51 357.66 109.42 390.35 77.69 376.63 77.78 344.01"/><path class="cls-17" d="M99,356.78a1.93,1.93,0,0,0-.47,1.33l0,13.37a4,4,0,0,0,2.17,3.42l4.27,1.84a1.5,1.5,0,0,0,1.71-.21Z"/><path class="cls-17" d="M80.53,348.87a1.88,1.88,0,0,0-.46,1.33l0,13.37A4,4,0,0,0,82.21,367l4.27,1.83a1.49,1.49,0,0,0,1.7-.21Z"/><path class="cls-18" d="M94.1,351.84,94,383l14.65,6.22.09-31.1Zm6.55,23.06a4,4,0,0,1-2.17-3.42l0-14.83v1.46a1.93,1.93,0,0,1,.47-1.33,1.47,1.47,0,0,1,1.72-.23l4.27,1.84a4,4,0,0,1,2.18,3.42l0,13.37a1.84,1.84,0,0,1-.48,1.35,1.5,1.5,0,0,1-1.71.21Zm-2.18-2a1.55,1.55,0,0,0,.27.84A1.55,1.55,0,0,1,98.47,372.94Z"/><path class="cls-18" d="M78.45,376.18l14.66,6.4.08-31.17-14.65-6.28ZM82.21,367A4,4,0,0,1,80,363.57l0-13.37a1.88,1.88,0,0,1,.46-1.33,1.48,1.48,0,0,1,1.73-.23l4.27,1.84a4,4,0,0,1,2.17,3.43l0,13.36a1.86,1.86,0,0,1-.48,1.35,1.49,1.49,0,0,1-1.7.21Z"/><path class="cls-19" d="M105,358.39l-4.27-1.84a1.47,1.47,0,0,0-1.72.23,1.93,1.93,0,0,0-.47,1.33l0,13.37a4,4,0,0,0,2.17,3.42l4.27,1.84a1.5,1.5,0,0,0,1.71-.21,1.84,1.84,0,0,0,.48-1.35l0-13.37A4,4,0,0,0,105,358.39Z"/><path class="cls-19" d="M86.53,350.48l-4.27-1.84a1.48,1.48,0,0,0-1.73.23,1.88,1.88,0,0,0-.46,1.33l0,13.37A4,4,0,0,0,82.21,367l4.27,1.83a1.49,1.49,0,0,0,1.7-.21,1.86,1.86,0,0,0,.48-1.35l0-13.36A4,4,0,0,0,86.53,350.48Z"/><path class="cls-20" d="M90.54,360.45c-.55-.23-1,.08-1,.71v1.14l2,.85V362A1.82,1.82,0,0,0,90.54,360.45Z"/><path class="cls-18" d="M91.31,362a1.64,1.64,0,0,0-.88-1.38.72.72,0,0,0-.34-.06c-.29,0-.32.38-.32.52v1l1.54.65Z"/><path class="cls-21" d="M90.54,360.45a1,1,0,0,0-.39-.08h0a.61.61,0,0,0-.31.11l.52-.38h0l0,0,0,0,0,0,.06,0h.23l.12,0,.14.05a1.15,1.15,0,0,1,.33.21l0,0h0l.05.05.09.08.06.08.06.08,0,.08h0l0,.07,0,.08s0,0,0,.08l0,.08a.36.36,0,0,1,0,.09s0,0,0,0h0v0l0,.11c0,.05,0,.09,0,.13a1.28,1.28,0,0,1,0,.19v1.15l-.53.38V362a1.49,1.49,0,0,0-.07-.47h0a1.83,1.83,0,0,0-.52-.81v0A1.78,1.78,0,0,0,90.54,360.45Z"/><path class="cls-21" d="M91.51,370.64l.53-.39v1.14a.8.8,0,0,1-.29.68l-.53.39a.84.84,0,0,0,.3-.68Z"/><polygon class="cls-22" points="91.51 370.64 92.04 370.25 90.23 369.4 89.52 369.79 91.51 370.64"/><path class="cls-20" d="M89.52,369.78v1.15a1.83,1.83,0,0,0,1,1.56c.55.24,1-.09,1-.71v-1.14Z"/><path class="cls-18" d="M91,372.34c.3,0,.33-.39.33-.53v-1l-1.53-.66v.75a1.63,1.63,0,0,0,.88,1.39A.68.68,0,0,0,91,372.34Z"/><path class="cls-23" d="M90.06,362.6a1.17,1.17,0,0,0-.14-.3h0a1,1,0,0,0-.2-.26h0a.85.85,0,0,0-.25-.17.45.45,0,0,0-.25-.05h0a.38.38,0,0,0-.21.07h0l.54-.41.55-.42h0l0,0,0,0h.23l.07,0,.1,0a1,1,0,0,1,.21.15l0,0h0l0,0a.34.34,0,0,1,.06.06l0,.05,0,.05,0,.06h0l0,0,0,.05,0,.05a.14.14,0,0,0,0,.06l0,.06v0h0a0,0,0,0,1,0,0s0,.05,0,.07a.28.28,0,0,1,0,.09.66.66,0,0,1,0,.14l0,9.2a.53.53,0,0,1-.19.46l-1.1.83a.57.57,0,0,0,.19-.46l0-9.21a.93.93,0,0,0,0-.32Z"/><path class="cls-24" d="M89.46,361.86c-.35-.16-.64.05-.65.48l0,9.21a1.25,1.25,0,0,0,.65,1.07c.35.16.65-.05.65-.48l0-9.21A1.26,1.26,0,0,0,89.46,361.86Z"/><path class="cls-20" d="M95.76,362.56c-.55-.23-1,.08-1,.71v1.14l2,.85v-1.14A1.82,1.82,0,0,0,95.76,362.56Z"/><path class="cls-18" d="M96.53,364.15a1.64,1.64,0,0,0-.88-1.38.61.61,0,0,0-.34,0c-.29,0-.32.37-.32.52v1l1.54.66Z"/><path class="cls-21" d="M95.76,362.56a1,1,0,0,0-.39-.08h0a.58.58,0,0,0-.32.1l.53-.38h0a.09.09,0,0,1,0,0l0,0,0,0,.06,0H96l.12,0,.14.05a1.15,1.15,0,0,1,.33.21l0,0h0l0,.05.08.09.07.07.06.08,0,.08h0l.05.07,0,.08,0,.08,0,.08a.36.36,0,0,1,0,.09s0,0,0,.05h0a.09.09,0,0,0,0,.05l0,.1s0,.09,0,.14a1.15,1.15,0,0,1,0,.19v1.14l-.53.38v-1.14a1.55,1.55,0,0,0-.08-.47h0a1.83,1.83,0,0,0-.52-.81v0A1.78,1.78,0,0,0,95.76,362.56Z"/><path class="cls-21" d="M96.73,372.75l.53-.39v1.15a.79.79,0,0,1-.29.67l-.53.39a.81.81,0,0,0,.29-.68Z"/><polygon class="cls-22" points="96.73 372.75 97.26 372.36 95.44 371.51 94.74 371.9 96.73 372.75"/><path class="cls-20" d="M94.74,371.9V373a1.79,1.79,0,0,0,1,1.56c.55.24,1-.08,1-.71v-1.14Z"/><path class="cls-18" d="M96.17,374.45c.3,0,.33-.38.33-.53v-1L95,372.25V373a1.63,1.63,0,0,0,.88,1.38A.68.68,0,0,0,96.17,374.45Z"/><path class="cls-23" d="M95.28,364.72a1.23,1.23,0,0,0-.14-.31h0a.82.82,0,0,0-.2-.25h0a.83.83,0,0,0-.25-.18.59.59,0,0,0-.25-.05h0a.38.38,0,0,0-.21.07h0l.54-.41.55-.41h0l0,0,0,0h.3l.1,0a.7.7,0,0,1,.21.14l0,0h0l0,0,.06.06,0,.05,0,0,0,.06h0l0,.05,0,.05a.14.14,0,0,1,0,.06l0,.05,0,.06v0h0v0s0,.05,0,.07,0,.07,0,.1a.53.53,0,0,1,0,.13l0,9.21a.55.55,0,0,1-.19.46l-1.1.82a.55.55,0,0,0,.18-.46l0-9.2a1.26,1.26,0,0,0,0-.33Z"/><path class="cls-24" d="M94.68,364c-.36-.16-.65,0-.65.48l0,9.21a1.26,1.26,0,0,0,.64,1.07c.36.17.65-.05.65-.48l0-9.2A1.27,1.27,0,0,0,94.68,364Z"/><g class="cls-25"><path class="cls-19" d="M99,356.78a1.93,1.93,0,0,0-.47,1.33l0,13.37a4,4,0,0,0,2.17,3.42l4.27,1.84a1.5,1.5,0,0,0,1.71-.21Z"/></g><g class="cls-25"><path class="cls-19" d="M80.53,348.87a1.88,1.88,0,0,0-.46,1.33l0,13.37A4,4,0,0,0,82.21,367l4.27,1.83a1.49,1.49,0,0,0,1.7-.21Z"/></g><g class="cls-1"><polygon class="cls-30" points="95.94 422.33 98.64 420.76 98.73 369.54 96.03 371.11 95.94 422.33"/><polygon class="cls-31" points="96.03 371.11 98.73 369.54 95.8 367.84 93.09 369.41 96.03 371.11"/><polygon class="cls-32" points="93.09 369.41 93 420.64 95.94 422.33 96.03 371.11 93.09 369.41"/></g><g class="cls-1"><polygon class="cls-30" points="29.1 395.15 31.81 393.58 31.9 342.35 29.2 343.92 29.1 395.15"/><polygon class="cls-31" points="29.2 343.92 31.9 342.35 28.96 340.66 26.26 342.23 29.2 343.92"/><polygon class="cls-32" points="26.26 342.23 26.17 393.45 29.1 395.15 29.2 343.92 26.26 342.23"/></g><g class="cls-1"><polygon class="cls-3" points="21.88 341.23 21.88 343.93 95.97 376.1 95.97 373.4 21.88 341.23"/><polygon class="cls-4" points="95.97 373.4 95.97 376.1 132.39 351.06 132.39 348.36 95.97 373.4"/><polygon class="cls-5" points="21.88 341.23 95.97 373.4 132.39 348.36 58.29 316.19 21.88 341.23"/></g></g></g></svg>