<svg id="Layer_1" data-name="Layer 1" xmlns="http://www.w3.org/2000/svg" viewBox="0 0 225.46 448.85"><defs><style>.cls-1{fill:#81371a;}.cls-2{fill:#d86c27;}.cls-3{isolation:isolate;}.cls-4{fill:#eae1da;}.cls-5{fill:#c9c9c9;}.cls-6{fill:#f7eee8;}.cls-7{fill:#fff;}.cls-8{fill:#25140c;}.cls-9{fill:#45220f;}.cls-10{fill:#311a0e;}.cls-11{fill:#807f80;}.cls-12{fill:#c6c2c1;}.cls-13{fill:#f58431;}.cls-14{fill:#b5b6b6;}.cls-15{fill:#733316;}.cls-16{fill:#54280f;}.cls-17{fill:#dcdcdc;}.cls-18{fill:#c56828;}</style></defs><title>building2</title><polygon class="cls-1" points="115.14 319.33 0 385.81 110.1 448.85 225.46 382.37 115.14 319.33"/><polygon class="cls-2" points="112.5 0 28.16 48.69 122.11 102.48 206.62 53.79 112.5 0"/><g class="cls-3"><polygon class="cls-1" points="206.62 53.79 206.62 193.14 108.74 249.54 108.74 110.19 206.62 53.79"/><polygon class="cls-4" points="108.74 110.15 108.74 249.5 14.8 195.72 14.84 56.39 108.74 110.15"/><path class="cls-5" d="M14.84,63.13V80.79l3.08-1.34V64.92Z"/><polygon class="cls-6" points="14.84 63.13 14.84 80.78 12.56 79.36 12.56 61.81 14.84 63.13"/></g><polygon class="cls-7" points="14.8 56.4 108.74 110.19 122.11 102.48 28.16 48.69 14.8 56.4"/><polygon class="cls-8" points="26.22 56.38 112.51 6.56 195.19 53.81 108.73 103.63 26.22 56.38"/><g class="cls-3"><polygon class="cls-1" points="31.91 59.7 26.11 56.42 112.41 6.53 112.41 13.19 31.91 59.7"/><polygon class="cls-9" points="112.41 13.19 112.41 6.53 195.23 53.81 189.45 57.16 112.41 13.19"/></g><polygon class="cls-5" points="122.11 102.48 122.11 241.84 108.74 249.54 108.74 110.19 122.11 102.48"/><g class="cls-3"><polygon class="cls-10" points="108.02 248.74 108.02 440.78 14.08 386.99 14.12 194.98 108.02 248.74"/></g><polygon class="cls-11" points="108.74 114.43 14.84 63.13 14.84 64.26 108.74 118.02 108.74 114.43"/><polygon class="cls-11" points="108.74 116.79 14.84 65.49 14.84 66.61 108.74 120.38 108.74 116.79"/><polyline class="cls-7" points="108.75 110.27 106.41 111.37 12.56 57.66 14.84 56.38"/><polygon class="cls-6" points="106.41 111.37 106.41 115.55 12.56 61.83 12.56 57.66 106.41 111.37"/><polyline class="cls-12" points="108.71 117.76 108.1 118.1 108.1 119.21 108.71 118.87"/><polyline class="cls-7" points="108.71 117.76 108.1 118.1 14.26 64.58 14.86 64.24"/><polygon class="cls-6" points="108.1 118.1 108.1 119.21 14.26 65.69 14.26 64.58 108.1 118.1"/><polygon class="cls-11" points="108.74 119.32 14.84 68.01 14.84 69.14 108.74 122.91 108.74 119.32"/><polyline class="cls-12" points="108.71 120.29 108.1 120.63 108.1 121.73 108.71 121.39"/><polyline class="cls-7" points="108.71 120.29 108.1 120.63 14.26 67.1 14.86 66.77"/><polygon class="cls-6" points="108.1 120.63 108.1 121.73 14.26 68.21 14.26 67.1 108.1 120.63"/><polygon class="cls-11" points="108.74 121.84 14.84 70.54 14.84 71.66 108.74 125.43 108.74 121.84"/><polyline class="cls-12" points="108.71 122.81 108.1 123.15 108.1 124.26 108.71 123.92"/><polyline class="cls-7" points="108.71 122.81 108.1 123.15 14.26 69.63 14.86 69.29"/><polygon class="cls-6" points="108.1 123.15 108.1 124.26 14.26 70.73 14.26 69.63 108.1 123.15"/><polygon class="cls-11" points="108.74 124.37 14.84 73.06 14.84 74.19 108.74 127.96 108.74 124.37"/><polyline class="cls-12" points="108.71 125.34 108.1 125.68 108.1 126.78 108.71 126.44"/><polyline class="cls-7" points="108.71 125.34 108.1 125.68 14.26 72.15 14.86 71.81"/><polygon class="cls-6" points="108.1 125.68 108.1 126.78 14.26 73.26 14.26 72.15 108.1 125.68"/><polygon class="cls-13" points="22.28 114.75 22.28 83.83 43.12 95.76 43.12 126.67 22.28 114.75"/><path class="cls-8" d="M22.27,114.75q0-15.45,0-30.92l1.61.92V113.9Z"/><path class="cls-8" d="M32.55,120.67q0-15.47,0-30.92l1.61.91v29.16Z"/><polygon class="cls-8" points="23.79 113.87 20.85 114.02 43.07 127.5 43.04 124.73 23.79 113.87"/><polygon class="cls-8" points="23.79 98.34 20.85 98.49 43.07 111.02 43.04 109.2 23.79 98.34"/><path class="cls-14" d="M19.32,116.44c0-10.3,0-23.8,0-34.11l3,1.49v30.92Z"/><polygon class="cls-8" points="22.28 114.75 19.33 116.43 43.15 130.02 43.12 126.67 22.28 114.75"/><g class="cls-3"><polygon class="cls-8" points="43.14 130.01 43.14 130.64 35.88 134.72 35.88 134.08 43.14 130.01"/><polygon class="cls-1" points="35.88 134.08 35.88 134.72 12.11 121.13 12.11 120.49 35.88 134.08"/><polygon class="cls-2" points="19.34 116.42 43.14 130.01 35.88 134.08 12.11 120.49 19.34 116.42"/></g><polygon class="cls-13" points="52.66 131.95 52.66 101.03 73.5 112.97 73.49 143.88 52.66 131.95"/><path class="cls-8" d="M52.65,132q0-15.47,0-30.92l1.6.92v29.15Z"/><path class="cls-8" d="M62.93,137.87q0-15.45,0-30.92l1.61.92V137Z"/><polygon class="cls-8" points="54.17 131.08 51.22 131.23 73.45 144.4 73.42 141.94 54.17 131.08"/><polygon class="cls-8" points="54.17 115.54 51.22 115.7 73.45 128.22 73.42 126.41 54.17 115.54"/><path class="cls-14" d="M49.7,133.64c0-10.3,0-23.8,0-34.1l3,1.49v30.91Z"/><polygon class="cls-8" points="52.66 131.95 49.71 133.63 73.53 147.23 73.49 143.88 52.66 131.95"/><g class="cls-3"><polygon class="cls-8" points="73.52 147.22 73.52 147.85 66.26 151.92 66.26 151.29 73.52 147.22"/><polygon class="cls-1" points="66.26 151.29 66.26 151.92 42.48 138.33 42.48 137.7 66.26 151.29"/><polygon class="cls-2" points="49.71 133.62 73.52 147.22 66.26 151.29 42.48 137.7 49.71 133.62"/></g><polygon class="cls-13" points="83.04 149.16 83.04 118.24 103.88 130.18 103.87 161.09 83.04 149.16"/><path class="cls-8" d="M83,149.17q0-15.46,0-30.93l1.6.92v29.15Z"/><path class="cls-8" d="M93.31,155.08q0-15.47,0-30.92l1.61.92v29.15Z"/><polygon class="cls-8" points="84.55 148.28 81.6 148.43 103.83 161.8 103.8 159.15 84.55 148.28"/><polygon class="cls-8" points="84.55 132.75 81.6 132.9 103.83 145.43 103.8 143.61 84.55 132.75"/><path class="cls-14" d="M80.08,150.85c0-10.3,0-23.8,0-34.1l3,1.48v30.92Z"/><polygon class="cls-8" points="83.04 149.16 80.09 150.84 103.9 164.44 103.87 161.09 83.04 149.16"/><g class="cls-3"><polygon class="cls-8" points="103.9 164.42 103.9 165.06 96.64 169.13 96.64 168.5 103.9 164.42"/><polygon class="cls-1" points="96.64 168.5 96.64 169.13 72.86 155.54 72.86 154.91 96.64 168.5"/><polygon class="cls-2" points="80.09 150.83 103.9 164.42 96.64 168.5 72.86 154.91 80.09 150.83"/></g><polygon class="cls-13" points="22.28 163.04 22.28 132.13 43.12 144.06 43.12 174.97 22.28 163.04"/><path class="cls-8" d="M22.27,163.05q0-15.47,0-30.92l1.61.92V162.2Z"/><path class="cls-8" d="M32.55,169q0-15.45,0-30.92l1.61.92v29.15Z"/><polygon class="cls-8" points="23.79 162.17 20.85 162.32 43.07 175.8 43.04 173.03 23.79 162.17"/><polygon class="cls-8" points="23.79 146.64 20.85 146.79 43.07 159.32 43.04 157.5 23.79 146.64"/><path class="cls-14" d="M19.32,164.74c0-10.31,0-23.81,0-34.11l3,1.49V163Z"/><polygon class="cls-8" points="22.28 163.04 19.33 164.72 43.15 178.32 43.12 174.97 22.28 163.04"/><g class="cls-3"><polygon class="cls-8" points="43.14 178.31 43.14 178.94 35.88 183.02 35.88 182.38 43.14 178.31"/><polygon class="cls-1" points="35.88 182.38 35.88 183.02 12.11 169.42 12.11 168.79 35.88 182.38"/><polygon class="cls-2" points="19.34 164.72 43.14 178.31 35.88 182.38 12.11 168.79 19.34 164.72"/></g><polygon class="cls-13" points="52.66 180.25 52.66 149.34 73.5 161.27 73.49 192.18 52.66 180.25"/><path class="cls-8" d="M52.65,180.26q0-15.47,0-30.92l1.6.92v29.15C53.75,179.69,53.19,180,52.65,180.26Z"/><path class="cls-8" d="M62.93,186.17q0-15.45,0-30.92l1.61.92v29.15Z"/><polygon class="cls-8" points="54.17 179.38 51.22 179.53 73.45 192.7 73.42 190.24 54.17 179.38"/><polygon class="cls-8" points="54.17 163.84 51.22 163.99 73.45 176.52 73.42 174.7 54.17 163.84"/><path class="cls-14" d="M49.7,181.94c0-10.3,0-23.8,0-34.1l3,1.48v30.92Z"/><polygon class="cls-8" points="52.66 180.25 49.71 181.93 73.53 195.53 73.49 192.18 52.66 180.25"/><g class="cls-3"><polygon class="cls-8" points="73.52 195.51 73.52 196.15 66.26 200.22 66.26 199.59 73.52 195.51"/><polygon class="cls-1" points="66.26 199.59 66.26 200.22 42.48 186.63 42.48 186 66.26 199.59"/><polygon class="cls-2" points="49.71 181.92 73.52 195.51 66.26 199.59 42.48 186 49.71 181.92"/></g><polygon class="cls-13" points="83.04 197.46 83.04 166.54 103.88 178.47 103.87 209.39 83.04 197.46"/><path class="cls-8" d="M83,197.46q0-15.45,0-30.92l1.6.92v29.15C84.13,196.9,83.57,197.18,83,197.46Z"/><path class="cls-8" d="M93.31,203.38q0-15.47,0-30.92l1.61.92v29.15Z"/><polygon class="cls-8" points="84.55 196.58 81.6 196.73 103.83 210.1 103.8 207.44 84.55 196.58"/><polygon class="cls-8" points="84.55 181.05 81.6 181.2 103.83 193.73 103.8 191.91 84.55 181.05"/><path class="cls-14" d="M80.08,199.15c0-10.3,0-23.8,0-34.11l3,1.49v30.92Z"/><polygon class="cls-8" points="83.04 197.46 80.09 199.14 103.9 212.74 103.87 209.39 83.04 197.46"/><g class="cls-3"><polygon class="cls-8" points="103.9 212.72 103.9 213.35 96.64 217.43 96.64 216.79 103.9 212.72"/><polygon class="cls-1" points="96.64 216.79 96.64 217.43 72.86 203.84 72.86 203.2 96.64 216.79"/><polygon class="cls-2" points="80.09 199.13 103.9 212.72 96.64 216.79 72.86 203.2 80.09 199.13"/></g><polygon class="cls-13" points="22.28 309.26 22.28 278.34 43.12 290.27 43.12 321.19 22.28 309.26"/><path class="cls-8" d="M22.27,309.26q0-15.45,0-30.92l1.61.92v29.15Z"/><path class="cls-8" d="M32.55,315.18q0-15.46,0-30.92l1.61.92v29.15Z"/><polygon class="cls-8" points="23.79 308.38 20.85 308.53 43.07 322.01 43.04 319.24 23.79 308.38"/><polygon class="cls-8" points="23.79 292.85 20.85 293 43.07 305.53 43.04 303.71 23.79 292.85"/><path class="cls-14" d="M19.32,311c0-10.3,0-23.8,0-34.1l3,1.48v30.92Z"/><polygon class="cls-8" points="22.28 309.26 19.33 310.94 43.15 324.54 43.12 321.19 22.28 309.26"/><g class="cls-3"><polygon class="cls-8" points="43.14 324.52 43.14 325.15 35.88 329.23 35.88 328.6 43.14 324.52"/><polygon class="cls-1" points="35.88 328.6 35.88 329.23 12.11 315.64 12.11 315 35.88 328.6"/><polygon class="cls-2" points="19.34 310.93 43.14 324.52 35.88 328.6 12.11 315 19.34 310.93"/></g><polygon class="cls-13" points="52.66 326.46 52.66 295.55 73.5 307.48 73.49 338.39 52.66 326.46"/><path class="cls-8" d="M52.65,326.47q0-15.47,0-30.92l1.6.92v29.15Z"/><path class="cls-8" d="M62.93,332.38q0-15.45,0-30.92l1.61.92v29.15Z"/><polygon class="cls-8" points="54.17 325.59 51.22 325.74 73.45 338.91 73.42 336.45 54.17 325.59"/><polygon class="cls-8" points="54.17 310.06 51.22 310.21 73.45 322.74 73.42 320.92 54.17 310.06"/><path class="cls-14" d="M49.7,328.16c0-10.31,0-23.81,0-34.11l3,1.49v30.92Z"/><polygon class="cls-8" points="52.66 326.46 49.71 328.14 73.53 341.74 73.49 338.39 52.66 326.46"/><g class="cls-3"><polygon class="cls-8" points="73.52 341.73 73.52 342.36 66.26 346.44 66.26 345.8 73.52 341.73"/><polygon class="cls-1" points="66.26 345.8 66.26 346.44 42.48 332.84 42.48 332.21 66.26 345.8"/><polygon class="cls-2" points="49.71 328.13 73.52 341.73 66.26 345.8 42.48 332.21 49.71 328.13"/></g><polygon class="cls-13" points="83.04 343.67 83.04 312.75 103.88 324.69 103.87 355.6 83.04 343.67"/><path class="cls-8" d="M83,343.68q0-15.46,0-30.92l1.6.92v29.15C84.13,343.11,83.57,343.39,83,343.68Z"/><path class="cls-8" d="M93.31,349.59q0-15.46,0-30.92l1.61.92v29.15Z"/><polygon class="cls-8" points="84.55 342.79 81.6 342.95 103.83 356.31 103.8 353.66 84.55 342.79"/><polygon class="cls-8" points="84.55 327.26 81.6 327.41 103.83 339.94 103.8 338.12 84.55 327.26"/><path class="cls-14" d="M80.08,345.36c0-10.3,0-23.8,0-34.1l3,1.48v30.92Z"/><polygon class="cls-8" points="83.04 343.67 80.09 345.35 103.9 358.95 103.87 355.6 83.04 343.67"/><g class="cls-3"><polygon class="cls-8" points="103.9 358.93 103.9 359.57 96.64 363.64 96.64 363.01 103.9 358.93"/><polygon class="cls-1" points="96.64 363.01 96.64 363.64 72.86 350.05 72.86 349.42 96.64 363.01"/><polygon class="cls-2" points="80.09 345.34 103.9 358.93 96.64 363.01 72.86 349.42 80.09 345.34"/></g><path class="cls-5" d="M106.41,111.37V129.1l2.84-1.47V109.9Z"/><polygon class="cls-6" points="106.41 111.37 106.41 128.92 103.89 127.54 103.89 109.99 106.41 111.37"/><polygon class="cls-9" points="108.74 292.59 108.74 321.79 14.8 268 14.84 238.83 108.74 292.59"/><polygon class="cls-8" points="33.38 254.76 33.38 270.4 18.11 261.56 18.11 245.91 33.38 254.76"/><g class="cls-3"><polygon class="cls-15" points="31.94 255.76 31.94 268.64 27.21 271.24 27.21 258.36 31.94 255.76"/><polygon class="cls-16" points="27.21 258.36 27.21 271.24 14.66 263.96 14.66 251.07 27.21 258.36"/><polygon class="cls-1" points="19.37 248.47 31.94 255.76 27.21 258.36 14.66 251.07 19.37 248.47"/></g><polygon class="cls-8" points="57.2 268.31 57.2 283.96 41.94 275.12 41.94 259.47 57.2 268.31"/><g class="cls-3"><polygon class="cls-15" points="55.76 269.31 55.76 282.2 51.03 284.8 51.03 271.91 55.76 269.31"/><polygon class="cls-16" points="51.03 271.91 51.03 284.8 38.48 277.51 38.48 264.63 51.03 271.91"/><polygon class="cls-1" points="43.19 262.03 55.76 269.31 51.03 271.91 38.48 264.63 43.19 262.03"/></g><polygon class="cls-8" points="81.02 281.87 81.02 297.52 65.76 288.67 65.76 273.02 81.02 281.87"/><g class="cls-3"><polygon class="cls-15" points="79.58 282.87 79.58 295.75 74.85 298.36 74.85 285.47 79.58 282.87"/><polygon class="cls-16" points="74.85 285.47 74.85 298.36 62.3 291.07 62.3 278.19 74.85 285.47"/><polygon class="cls-1" points="67.01 275.59 79.58 282.87 74.85 285.47 62.3 278.19 67.01 275.59"/></g><polygon class="cls-8" points="104.84 295.43 104.84 311.07 89.58 302.23 89.58 286.58 104.84 295.43"/><g class="cls-3"><polygon class="cls-15" points="103.4 296.43 103.4 309.31 98.67 311.91 98.67 299.03 103.4 296.43"/><polygon class="cls-16" points="98.67 299.03 98.67 311.91 86.12 304.63 86.12 291.74 98.67 299.03"/><polygon class="cls-1" points="90.83 289.14 103.4 296.43 98.67 299.03 86.12 291.74 90.83 289.14"/></g><path class="cls-8" d="M108.75,292.35l-.61.34v1.1l.61-.33Z"/><polygon class="cls-1" points="108.75 292.35 108.14 292.69 14.22 239.15 14.82 238.81 108.75 292.35"/><polygon class="cls-8" points="108.14 292.69 108.14 293.79 14.22 240.26 14.22 239.15 108.14 292.69"/><path class="cls-8" d="M108.75,321.33l-.61.34v1.1l.61-.34Z"/><polygon class="cls-1" points="108.75 321.33 108.14 321.67 14.22 268.13 14.82 267.8 108.75 321.33"/><polygon class="cls-8" points="108.14 321.67 108.14 322.77 14.22 269.24 14.22 268.13 108.14 321.67"/><polygon class="cls-9" points="108.74 228.37 108.74 257.57 14.8 203.79 14.84 174.61 108.74 228.37"/><polygon class="cls-8" points="33.38 190.54 33.38 206.19 18.11 197.34 18.11 181.7 33.38 190.54"/><g class="cls-3"><polygon class="cls-15" points="31.94 191.54 31.94 204.43 27.21 207.03 27.21 194.14 31.94 191.54"/><polygon class="cls-16" points="27.21 194.14 27.21 207.03 14.66 199.74 14.66 186.86 27.21 194.14"/><polygon class="cls-1" points="19.37 184.26 31.94 191.54 27.21 194.14 14.66 186.86 19.37 184.26"/></g><polygon class="cls-8" points="57.2 204.1 57.2 219.75 41.94 210.9 41.94 195.25 57.2 204.1"/><g class="cls-3"><polygon class="cls-15" points="55.76 205.1 55.76 217.99 51.03 220.58 51.03 207.7 55.76 205.1"/><polygon class="cls-16" points="51.03 207.7 51.03 220.58 38.48 213.3 38.48 200.41 51.03 207.7"/><polygon class="cls-1" points="43.19 197.81 55.76 205.1 51.03 207.7 38.48 200.41 43.19 197.81"/></g><polygon class="cls-8" points="81.02 217.65 81.02 233.3 65.76 224.46 65.76 208.81 81.02 217.65"/><g class="cls-3"><polygon class="cls-15" points="79.58 218.65 79.58 231.54 74.85 234.14 74.85 221.25 79.58 218.65"/><polygon class="cls-16" points="74.85 221.25 74.85 234.14 62.3 226.86 62.3 213.97 74.85 221.25"/><polygon class="cls-1" points="67.01 211.37 79.58 218.65 74.85 221.25 62.3 213.97 67.01 211.37"/></g><polygon class="cls-8" points="104.84 231.21 104.84 246.86 89.58 238.01 89.58 222.37 104.84 231.21"/><g class="cls-3"><polygon class="cls-15" points="103.4 232.21 103.4 245.1 98.67 247.69 98.67 234.81 103.4 232.21"/><polygon class="cls-16" points="98.67 234.81 98.67 247.69 86.12 240.41 86.12 227.53 98.67 234.81"/><polygon class="cls-1" points="90.83 224.93 103.4 232.21 98.67 234.81 86.12 227.53 90.83 224.93"/></g><path class="cls-8" d="M108.75,228.13l-.61.34v1.11l.61-.34Z"/><polygon class="cls-1" points="108.75 228.13 108.14 228.47 14.22 174.94 14.82 174.6 108.75 228.13"/><polygon class="cls-8" points="108.14 228.47 108.14 229.58 14.22 176.04 14.22 174.94 108.14 228.47"/><path class="cls-8" d="M108.75,257.11l-.61.34v1.11l.61-.34Z"/><polygon class="cls-1" points="108.75 257.11 108.14 257.45 14.22 203.92 14.82 203.58 108.75 257.11"/><polygon class="cls-8" points="108.14 257.45 108.14 258.56 14.22 205.02 14.22 203.92 108.14 257.45"/><polygon class="cls-8" points="206.62 171.68 206.62 384.8 108.74 441.2 108.74 228.08 206.62 171.68"/><polygon class="cls-17" points="40.71 245.37 42.57 244.29 42.59 236.83 40.74 237.91 40.71 245.37"/><polygon class="cls-17" points="42.62 226.89 39.14 224.88 37.28 225.96 40.76 227.97 40.74 234.54 43.37 236.06 45.23 234.98 42.6 233.46 42.62 226.89"/><polygon class="cls-17" points="43.39 229.49 46.89 231.51 46.84 248.9 48.7 247.82 48.74 230.43 45.24 228.41 43.39 229.49"/><path class="cls-17" d="M56.19,249.24a1.36,1.36,0,0,1-.44-.17,2.06,2.06,0,0,1-.41-.32h0a2.25,2.25,0,0,1-.3-.42l0-.06a3.36,3.36,0,0,1-.26-.57h0c-.07-.22-.14-.46-.2-.73v0c-.06-.27-.1-.56-.14-.88,0,0,0-.06,0-.08q-.06-.48-.09-1c0-.08,0-.16,0-.24,0-.29,0-.59,0-.92,0-.52,0-1.06,0-1.67s0-1.35,0-1.9a.91.91,0,0,1,0-.17c0-.51.06-1,.11-1.32a.64.64,0,0,1,0-.07,4.25,4.25,0,0,1,.22-.93h0a1,1,0,0,1,.36-.48l-1.86,1.08a.69.69,0,0,0-.24.24,1.09,1.09,0,0,0-.08.15l0,.09h0l0,.07-.06.18-.06.23-.06.3s0,.1,0,.15a.13.13,0,0,0,0,.06l0,.19c0,.17,0,.35-.05.55s0,.39,0,.59,0,.11,0,.16a.49.49,0,0,1,0,.12q0,.74,0,1.65v.14c0,.61,0,1.15,0,1.67V245c0,.27,0,.51,0,.76,0,.07,0,.16,0,.24v0c0,.23,0,.46,0,.66l0,.31a.28.28,0,0,1,0,.09.25.25,0,0,1,0,.08c0,.13,0,.25.05.37s0,.19,0,.28l0,.15s0,0,0,0v.06c0,.07,0,.14,0,.2s0,.11,0,.16,0,.1,0,.15l0,.12s0,0,0,0h0l0,.06,0,.09,0,.08,0,.08,0,.07,0,.08,0,.08,0,0a.43.43,0,0,1,0,.07l.12.19,0,0,0,.06,0,0,0,.05,0,0h0l0,0,0,0s0,0,0,0l.05,0,0,0,0,0a.1.1,0,0,1,.05,0l.06,0,.05,0h0l0,0,.06,0,.06,0,0,0h0l0,0h.33l.08,0,.08,0,1.86-1.08a.56.56,0,0,1-.36.06Z"/><polygon class="cls-17" points="66.13 260.04 67.99 258.96 68.03 244.83 66.17 245.91 66.13 260.04"/><polygon class="cls-17" points="75.73 256.04 73.87 257.11 73.86 261.27 79.04 264.26 78.63 267.26 80.48 266.18 80.9 263.18 75.72 260.19 75.73 256.04"/><polygon class="cls-17" points="73.89 250.37 73.88 253.87 78.46 256.51 78.45 259.76 80.3 258.68 80.31 255.43 75.74 252.79 75.75 249.29 73.89 250.37"/><path class="cls-17" d="M85.84,266l0-14.15-3.48-2-1.86,1.08v-2.15l-8.21-4.74-1.35.79v-1.56l-9.42-5.44-1.75,1a.61.61,0,0,1,0-.12.59.59,0,0,1,0-.08v0a.69.69,0,0,0,0-.13l-.1-.22c0-.07-.07-.14-.11-.22s-.09-.19-.14-.28l-.25-.44,0-.06,0,0c0-.09-.11-.18-.17-.27l-.21-.3-.18-.24-.15-.18-.15-.18-.17-.18-.16-.18-.19-.18-.2-.19-.22-.18a.52.52,0,0,0-.11-.1l0,0L57,235l-.24-.19-.26-.18-.28-.18-.29-.18-.07,0a1.71,1.71,0,0,0-.23-.13l-.28-.15-.25-.12-.25-.1h0l-.2-.07-.21-.07-.2-.06-.2,0-.09,0h-.1l-.19,0h-.4l-.11,0H53l-.28.08-.31.14-1.85,1.08a1.9,1.9,0,0,1,.67-.23h0a2.51,2.51,0,0,1,.77,0h0a4.45,4.45,0,0,1,.9.26h0a7.45,7.45,0,0,1,1,.51,8.42,8.42,0,0,1,1.24.84l0,0a8.36,8.36,0,0,1,1,1h0a8.46,8.46,0,0,1,.87,1.17.08.08,0,0,0,0,0,10.72,10.72,0,0,1,.7,1.35v0a11.62,11.62,0,0,1,.54,1.54h0A16.38,16.38,0,0,1,58.8,243v0c.1.59.17,1.22.22,1.87V245c0,.67.07,1.38.07,2.12,0,.92,0,1.74-.11,2.48a.49.49,0,0,1,0,.12,12,12,0,0,1-.31,1.86s0,0,0,.07a5.57,5.57,0,0,1-.53,1.33l0,0a2.28,2.28,0,0,1-.79.81l1.86-1.08a2.21,2.21,0,0,0,.76-.76l0,0s0,0,0,0,.12-.2.18-.32a3.52,3.52,0,0,0,.16-.39c0-.14.1-.28.14-.43a1.33,1.33,0,0,0,0-.19.19.19,0,0,0,0-.07l.06-.22c0-.17.07-.36.11-.55s.06-.42.09-.64,0-.3,0-.45v-.12a1.49,1.49,0,0,0,0-.21q0-.47.06-1t0-1.23v-.08c0-.36,0-.71,0-1.06s0-.62,0-.93c0,0,0-.08,0-.13s0-.07,0-.11,0-.36,0-.54,0-.46-.08-.68,0-.4-.08-.6c0,0,0,0,0-.06v0c0-.14,0-.29-.07-.43s-.06-.32-.1-.48-.06-.29-.1-.43-.06-.26-.1-.39-.07-.24-.1-.36a2.81,2.81,0,0,1-.1-.31l-.11-.3a1.8,1.8,0,0,0-.08-.21l9.25,5.33v3.27L71,246.54v-1.12l7.7,4.45v3.27l1.86-1.08v-1.12L84,253l0,14.15,4.8,2.77-.33,3.06,1.86-1.08.33-3.06Z"/><polygon class="cls-7" points="46.89 231.51 46.84 248.9 43.34 246.88 43.36 239.42 40.74 237.91 40.71 245.37 37.23 243.36 37.28 225.96 40.76 227.97 40.74 234.54 43.37 236.06 43.39 229.49 46.89 231.51"/><path class="cls-7" d="M54,235.28c3.57,2.06,5.13,5.82,5.11,11.87,0,6.38-1.54,8.27-5.31,6.09-3.5-2-5.05-5.74-5-12.16C48.76,234.93,50.5,233.27,54,235.28Zm-.09,14.87c1.26.73,1.55-.77,1.57-5.18,0-4.13-.29-5.83-1.53-6.55s-1.54.72-1.55,4.78c0,4.29.32,6.26,1.51,7"/><polygon class="cls-7" points="69.14 244.35 69.13 247.62 66.17 245.91 66.13 260.04 62.65 258.03 62.69 243.9 59.71 242.18 59.72 238.92 69.14 244.35"/><polygon class="cls-7" points="78.69 249.87 78.68 253.14 73.89 250.37 73.88 253.87 78.46 256.51 78.45 259.76 73.87 257.11 73.86 261.27 79.04 264.26 78.63 267.26 70.44 262.53 70.49 245.13 78.69 249.87"/><polygon class="cls-7" points="84.03 252.95 83.98 267.1 88.78 269.87 88.45 272.93 80.5 268.33 80.54 250.94 84.03 252.95"/><path class="cls-18" d="M36.53,346.42c-9.06-5.23-16.43-1-16.46,9.38L20,390.37l32.81,18.95.1-34.57C52.92,364.34,45.6,351.66,36.53,346.42Z"/><polygon class="cls-15" points="52.79 409.22 51.09 408.33 52.79 409.32 52.79 409.22"/><path class="cls-8" d="M36.46,346.38c-9-5.16-16.36-1-16.39,9.42L20,390.37l1.38-.74.34-33C21.73,346.9,28.19,342.6,36.46,346.38Z"/><polygon class="cls-15" points="21.36 389.63 52.83 407.5 52.79 409.32 19.98 390.37 21.36 389.63"/><path class="cls-8" d="M34.69,397.16q0-13.16.05-26.3,0-13.31,0-26.6l1.64.95v52.94Z"/><polygon class="cls-8" points="21.3 365.61 19.91 365.72 52.86 384.2 52.87 383.29 21.3 365.61"/><path class="cls-18" d="M36.53,346.42c-9.06-5.23-16.43-1-16.46,9.38L20,390.37l32.81,18.95.1-34.57C52.92,364.34,45.6,351.66,36.53,346.42Z"/><polygon class="cls-15" points="52.79 409.22 51.09 408.33 52.79 409.32 52.79 409.22"/><path class="cls-8" d="M36.46,346.38c-9-5.16-16.36-1-16.39,9.42L20,390.37l1.38-.74.34-33C21.73,346.9,28.19,342.6,36.46,346.38Z"/><polygon class="cls-15" points="21.36 389.63 52.83 407.5 52.79 409.32 19.98 390.37 21.36 389.63"/><path class="cls-8" d="M34.69,397.16q0-13.16.05-26.3,0-13.31,0-26.6l1.64.95v52.94Z"/><polygon class="cls-8" points="21.3 365.61 19.91 365.72 52.86 384.2 52.87 383.29 21.3 365.61"/></svg>